<?xml version="1.0" encoding="UTF-8" standalone="no"?>
<svg
   xmlns:dc="http://purl.org/dc/elements/1.1/"
   xmlns:cc="http://creativecommons.org/ns#"
   xmlns:rdf="http://www.w3.org/1999/02/22-rdf-syntax-ns#"
   xmlns:svg="http://www.w3.org/2000/svg"
   xmlns="http://www.w3.org/2000/svg"
   xmlns:sodipodi="http://sodipodi.sourceforge.net/DTD/sodipodi-0.dtd"
   xmlns:inkscape="http://www.inkscape.org/namespaces/inkscape"
   version="1.1"
   width="18"
   height="18"
   viewBox="0 0 18 18"
   id="svg5800"
   sodipodi:docname="rename.svg"
   inkscape:version="0.92.2 (unknown)">
  <metadata
     id="metadata5806">
    <rdf:RDF>
      <cc:Work
         rdf:about="">
        <dc:format>image/svg+xml</dc:format>
        <dc:type
           rdf:resource="http://purl.org/dc/dcmitype/StillImage" />
      </cc:Work>
    </rdf:RDF>
  </metadata>
  <defs
     id="defs5804" />
  <sodipodi:namedview
     pagecolor="#ffffff"
     bordercolor="#666666"
     borderopacity="1"
     objecttolerance="10"
     gridtolerance="10"
     guidetolerance="10"
     inkscape:pageopacity="0"
     inkscape:pageshadow="2"
     inkscape:window-width="1920"
     inkscape:window-height="1056"
     id="namedview5802"
     showgrid="false"
     inkscape:zoom="9.8333333"
     inkscape:cx="9"
     inkscape:cy="9"
     inkscape:window-x="1366"
     inkscape:window-y="24"
     inkscape:window-maximized="1"
     inkscape:current-layer="svg5800" />
  <path
     d="m 16,0 a 2,2 0 0 1 2,2 v 14 c 0,1.11 -0.9,2 -2,2 H 2 A 2,2 0 0 1 0,16 V 2 A 2,2 0 0 1 2,0 h 14 m -2.3,6.35 c 0.22,-0.21 0.22,-0.56 0,-0.77 L 12.42,4.3 c -0.21,-0.22 -0.56,-0.22 -0.77,0 l -1,1 2.05,2.05 1,-1 M 4,11.94 V 14 H 6.06 L 12.12,7.94 10.06,5.88 Z"
     id="path5798"
     inkscape:connector-curvature="0"
     style="fill:#787878;fill-opacity:1" />
</svg>
