<?xml version="1.0" encoding="utf-8"?>
<!-- Generator: Adobe Illustrator 21.1.0, SVG Export Plug-In . SVG Version: 6.00 Build 0)  -->
<svg version="1.1" id="Слой_1" xmlns="http://www.w3.org/2000/svg" xmlns:xlink="http://www.w3.org/1999/xlink" x="0px" y="0px"
	 viewBox="0 0 135 35" style="enable-background:new 0 0 135 35;" xml:space="preserve">
<style type="text/css">
	.st0{fill:#FFFFFF;}
	.st1{fill:#1976D2;}
</style>
<g id="XMLID_4_">
	<g id="XMLID_26_">
		<path id="XMLID_42_" class="st0" d="M142-3.9c-49.1,0-98.1,0-147.2,0c-0.7,0-0.7,0-0.7,0.7c0,14.1,0,28.1,0,42.2
			C-6.1,39-6,38.8-6,38.7c0-2.7,0-5.5,0-8.2c0-11.3,0-22.7,0-34C-6-3.9-5.9-4-5.5-4c49.1,0,98.1,0,147.1,0
			C141.7-4,141.9-4.1,142-3.9z"/>
		<path id="XMLID_41_" class="st1" d="M61.6,26.3c-0.6,0.9-1.3,1.5-2.1,1.8c-2.9,1.3-7.8,0.5-9-4.7c-0.5-2.3-0.3-4.6,1-6.7
			c1.2-1.8,2.9-2.6,4.9-2.7c1.4-0.1,2.8,0.2,3.9,1.1c0.4,0.3,0.8,0.8,1.2,1.3c0-0.3,0-0.4,0-0.6c0-2.2,0-4.5,0-6.8
			c0-0.4,0.1-0.5,0.5-0.5c0.9,0,1.7,0,2.6,0c0.3,0,0.4,0.1,0.4,0.4c0,3.2,0,6.4,0,9.6c0,3.1,0,6.2,0,9.2c0,0.4-0.1,0.5-0.5,0.5
			c-0.9,0-1.7,0-2.6,0c-0.3,0-0.4-0.1-0.3-0.3C61.6,27.6,61.6,27,61.6,26.3z"/>
		<path id="XMLID_40_" class="st1" d="M72.7,26.3c0,0.7,0,1.3,0,1.8c0,0.4-0.1,0.4-0.4,0.4c-0.9,0-1.7,0-2.6,0
			c-0.3,0-0.4-0.1-0.4-0.4c0-2.8,0-5.5,0-8.3c0-3.5,0-7.1,0-10.6c0-0.4,0.1-0.5,0.5-0.5c0.8,0,1.7,0,2.5,0c0.3,0,0.4,0.1,0.4,0.4
			c0,2.3,0,4.7,0,7c0,0.1,0,0.2,0,0.4c0.4-0.5,0.7-0.9,1.1-1.2c2.7-2.2,7.3-1.4,9.1,1.7c1.6,2.8,1.7,5.7,0.1,8.6
			c-1.3,2.4-3.5,3.2-6.1,3.1C75.4,28.5,74,28,72.7,26.3z"/>
		<path id="XMLID_39_" class="st1" d="M122.6,20.1c0.4-0.4,0.8-0.8,1.1-1.2c1.5-1.5,2.9-3,4.4-4.5c0.1-0.1,0.2-0.2,0.4-0.2
			c1.2,0,2.5,0,3.8,0c-0.5,0.5-0.9,1-1.4,1.5c-1.2,1.2-2.3,2.5-3.5,3.7c-0.2,0.2-0.2,0.4-0.1,0.6c1.7,2.6,3.3,5.3,5,7.9
			c0.1,0.2,0.2,0.3,0.3,0.4c-0.1,0.2-0.2,0.1-0.3,0.1c-1.1,0-2.2,0-3.3,0c-0.3,0-0.4-0.1-0.6-0.3c-1.1-1.8-2.2-3.7-3.3-5.5
			c-0.2-0.3-0.2-0.4-0.5-0.1c-0.5,0.6-1.1,1.2-1.6,1.7c-0.2,0.2-0.2,0.3-0.2,0.6c0,1.1,0,2.2,0,3.2c0,0.3-0.1,0.4-0.3,0.4
			c-0.9,0-1.7,0-2.6,0c-0.4,0-0.5-0.1-0.5-0.5c0-3.7,0-7.5,0-11.2c0-2.6,0-5.1,0-7.7c0-0.4,0.1-0.5,0.5-0.5c0.8,0,1.6,0,2.4,0
			c0.4,0,0.5,0.1,0.5,0.5c0,3.4,0,6.9,0,10.3C122.6,19.7,122.6,19.8,122.6,20.1z"/>
		<path id="XMLID_38_" class="st1" d="M11.8,24.5c0.4-1.2,0.8-2.2,1.2-3.3c1.3-3.6,2.7-7.3,4-10.9c0.1-0.3,0.3-0.4,0.6-0.4
			c1,0,2.1,0,3.2,0c-0.3,0.7-0.5,1.4-0.8,2.1c-2.1,5.4-4.2,10.8-6.3,16.2c-0.1,0.3-0.3,0.4-0.6,0.4c-0.9,0-1.9,0-2.8,0
			c-0.3,0-0.5-0.1-0.6-0.4c-2.1-5.4-4.2-10.9-6.3-16.3c-0.3-0.6-0.5-1.3-0.8-2c1.2,0,2.4,0,3.6,0c0.3,0,0.3,0.2,0.4,0.4
			c0.8,2.2,1.6,4.5,2.5,6.7C10,19.4,10.9,21.9,11.8,24.5z"/>
		<path id="XMLID_37_" class="st1" d="M29.7,26.9c-1.8,2-5.1,2.2-6.9,1.3c-1.7-0.8-2.7-2.5-2.5-4.5c0.1-1.8,1.4-3.1,3.3-3.6
			c0.9-0.2,1.7-0.2,2.6-0.2c1,0,2,0,3,0c0.4,0,0.4-0.1,0.4-0.4c-0.1-1.4-0.9-2.2-2.2-2.4c-1.7-0.3-3.2,0.2-4.7,1
			c-0.4,0.2-0.5,0.2-0.7-0.2c-0.3-0.6-0.6-1.1-0.9-1.7C21,16,21,15.9,21.2,15.8c2.5-1.5,5.2-2.1,8.1-1.4c2.3,0.5,3.5,2.2,3.6,4.5
			c0.1,1.9,0,3.8,0,5.7c0,1.2,0,2.3,0,3.5c0,0.3-0.1,0.4-0.4,0.4c-0.9,0-1.8,0-2.7,0c-0.3,0-0.4-0.1-0.3-0.3
			C29.7,27.8,29.7,27.4,29.7,26.9z"/>
		<path id="XMLID_36_" class="st1" d="M100.1,20.6c0,4.8-2.5,7.6-6.4,8c-2.2,0.2-4.2-0.2-5.9-1.7c-1.3-1.1-2-2.5-2.3-4.2
			c-0.3-1.8-0.1-3.5,0.7-5c1.1-2.1,3-3.2,5.2-3.5c1.8-0.3,3.5-0.1,5.1,0.8C99,16.3,100.1,18.5,100.1,20.6z"/>
		<path id="XMLID_35_" class="st1" d="M116.4,22.1c0,1.9-0.9,4.1-3.2,5.5c-2.7,1.7-6.8,1.4-9.3-0.7c-1.3-1.1-1.9-2.5-2.2-4.2
			c-0.3-1.8-0.1-3.5,0.8-5c1.1-2.1,2.9-3.2,5.2-3.5c1.8-0.3,3.5-0.1,5.1,0.8C115.1,16.2,116.4,18.5,116.4,22.1z"/>
		<path id="XMLID_34_" class="st1" d="M36.8,18.6c0-3.1,0-6.3,0-9.4c0-0.4,0.1-0.5,0.5-0.5c0.9,0,1.7,0,2.6,0c0.3,0,0.3,0.1,0.3,0.4
			c0,6.4,0,12.8,0,19.2c0,0.2-0.1,0.3-0.3,0.3c-0.9,0-1.8,0-2.7,0c-0.4,0-0.5-0.1-0.5-0.5C36.8,24.9,36.8,21.7,36.8,18.6z"/>
		<path id="XMLID_33_" class="st1" d="M47.6,21.4c0,2.2,0,4.4,0,6.6c0,0.4-0.1,0.5-0.5,0.5c-0.9,0-1.7,0-2.6,0
			c-0.3,0-0.3-0.1-0.3-0.3c0-4.5,0-9.1,0-13.6c0-0.3,0.1-0.4,0.3-0.4c0.9,0,1.8,0,2.7,0c0.3,0,0.4,0.1,0.4,0.4
			C47.6,16.9,47.6,19.2,47.6,21.4z"/>
		<path id="XMLID_32_" class="st1" d="M47.8,10.2c0,1.1-0.7,1.9-1.8,1.9s-1.9-0.8-1.8-2c0-1.2,0.7-1.9,1.9-1.9
			C47,8.2,47.8,9,47.8,10.2z"/>
		<path id="XMLID_31_" class="st0" d="M57.7,17.1c2.2,0,3.8,1.6,3.9,3.8c0.1,1.3-0.1,2.6-1.1,3.5c-1.1,1.2-2.4,1.5-3.9,1.1
			s-2.4-1.4-2.7-2.9c-0.3-1-0.2-2,0.1-3C54.6,18,55.9,17.1,57.7,17.1z"/>
		<path id="XMLID_30_" class="st0" d="M80.5,21.3c0,2.2-1.1,3.8-2.9,4.2c-2.3,0.6-4.5-1-4.8-3.4c-0.1-1.1,0-2.1,0.5-3
			c0.8-1.6,2.4-2.3,4.2-2c1.5,0.2,2.7,1.5,3,3.1C80.5,20.6,80.6,21,80.5,21.3z"/>
		<path id="XMLID_29_" class="st0" d="M27.6,22.3c0.6,0,1.2,0,1.8,0c0.3,0,0.3,0.1,0.3,0.4c0,1.9-1.1,3.1-3,3.3
			c-0.7,0.1-1.4,0.1-2-0.2c-0.6-0.3-1-0.7-1.1-1.4c-0.1-0.9,0.3-1.6,1.1-1.8c0.4-0.1,0.8-0.2,1.2-0.2C26.5,22.3,27,22.3,27.6,22.3z"
			/>
		<path id="XMLID_28_" class="st0" d="M88.8,21.5c0-2.1,1.1-3.7,2.7-4.2c2.6-0.8,4.9,0.9,5.1,3.6c0.1,1.3-0.1,2.5-1,3.5
			c-1.1,1.3-2.6,1.6-4.1,1.1c-1.6-0.5-2.4-1.7-2.6-3.2C88.8,22,88.8,21.7,88.8,21.5z"/>
		<path id="XMLID_27_" class="st0" d="M112.9,21c0.2,2.3-1.2,4.3-3.2,4.6c-3,0.4-4.9-1.8-4.6-4.8c0.2-2,1.3-3.3,2.9-3.7
			C110.6,16.6,112.7,18.3,112.9,21C112.9,21,112.9,21.1,112.9,21z"/>
	</g>
</g>
</svg>
