<?xml version="1.0" encoding="UTF-8" standalone="no"?>
<svg
   xmlns:dc="http://purl.org/dc/elements/1.1/"
   xmlns:cc="http://creativecommons.org/ns#"
   xmlns:rdf="http://www.w3.org/1999/02/22-rdf-syntax-ns#"
   xmlns:svg="http://www.w3.org/2000/svg"
   xmlns="http://www.w3.org/2000/svg"
   xmlns:sodipodi="http://sodipodi.sourceforge.net/DTD/sodipodi-0.dtd"
   xmlns:inkscape="http://www.inkscape.org/namespaces/inkscape"
   height="19"
   viewBox="0 0 4.75 19"
   width="4.75"
   version="1.1"
   id="svg4539"
   sodipodi:docname="3dots-max.svg"
   style="fill:#000000"
   inkscape:version="0.92.2 (unknown)">
  <metadata
     id="metadata4545">
    <rdf:RDF>
      <cc:Work
         rdf:about="">
        <dc:format>image/svg+xml</dc:format>
        <dc:type
           rdf:resource="http://purl.org/dc/dcmitype/StillImage" />
        <dc:title></dc:title>
      </cc:Work>
    </rdf:RDF>
  </metadata>
  <defs
     id="defs4543" />
  <sodipodi:namedview
     pagecolor="#ffffff"
     bordercolor="#666666"
     borderopacity="1"
     objecttolerance="10"
     gridtolerance="10"
     guidetolerance="10"
     inkscape:pageopacity="0"
     inkscape:pageshadow="2"
     inkscape:window-width="1920"
     inkscape:window-height="1056"
     id="namedview4541"
     showgrid="false"
     inkscape:zoom="34.083333"
     inkscape:cx="2.1466993"
     inkscape:cy="11.520782"
     inkscape:window-x="1366"
     inkscape:window-y="24"
     inkscape:window-maximized="1"
     inkscape:current-layer="svg4539" />
  <path
     d="M -9.9706601,-1 H 14.02934 V 23 H -9.9706601 Z"
     id="path4535"
     inkscape:connector-curvature="0"
     style="fill:none" />
  <path
     d="M 2.375,4.75 C 3.68125,4.75 4.75,3.68125 4.75,2.375 4.75,1.06875 3.68125,0 2.375,0 1.0687499,0 0,1.06875 0,2.375 0,3.68125 1.0687499,4.75 2.375,4.75 Z m 0,2.375 C 1.0687499,7.125 0,8.19375 0,9.5 0,10.80625 1.0687499,11.875 2.375,11.875 3.68125,11.875 4.75,10.80625 4.75,9.5 4.75,8.19375 3.68125,7.125 2.375,7.125 Z m 0,7.125 C 1.0687499,14.25 0,15.31875 0,16.625001 0,17.93125 1.0687499,19 2.375,19 3.68125,19 4.75,17.93125 4.75,16.625001 4.75,15.31875 3.68125,14.25 2.375,14.25 Z"
     id="path4537"
     style="fill:#cdcdcd;fill-opacity:1;stroke-width:1.1875"
     inkscape:connector-curvature="0" />
</svg>
