<?xml version="1.0" encoding="UTF-8" standalone="no"?>
<svg
   xmlns:dc="http://purl.org/dc/elements/1.1/"
   xmlns:cc="http://creativecommons.org/ns#"
   xmlns:rdf="http://www.w3.org/1999/02/22-rdf-syntax-ns#"
   xmlns:svg="http://www.w3.org/2000/svg"
   xmlns="http://www.w3.org/2000/svg"
   xmlns:sodipodi="http://sodipodi.sourceforge.net/DTD/sodipodi-0.dtd"
   xmlns:inkscape="http://www.inkscape.org/namespaces/inkscape"
   height="19"
   viewBox="0 0 4.75 19"
   width="4.75"
   version="1.1"
   id="svg4539"
   sodipodi:docname="3dots.svg"
   style="fill:#000000"
   inkscape:version="0.92.1 r15371">
  <metadata
     id="metadata4545">
    <rdf:RDF>
      <cc:Work
         rdf:about="">
        <dc:format>image/svg+xml</dc:format>
        <dc:type
           rdf:resource="http://purl.org/dc/dcmitype/StillImage" />
      </cc:Work>
    </rdf:RDF>
  </metadata>
  <defs
     id="defs4543" />
  <sodipodi:namedview
     pagecolor="#ffffff"
     bordercolor="#666666"
     borderopacity="1"
     objecttolerance="10"
     gridtolerance="10"
     guidetolerance="10"
     inkscape:pageopacity="0"
     inkscape:pageshadow="2"
     inkscape:window-width="1920"
     inkscape:window-height="1019"
     id="namedview4541"
     showgrid="false"
     inkscape:zoom="34.083333"
     inkscape:cx="2.1173594"
     inkscape:cy="11.520782"
     inkscape:window-x="0"
     inkscape:window-y="27"
     inkscape:window-maximized="1"
     inkscape:current-layer="svg4539" />
  <path
     d="M -10,-1 H 14 V 23 H -10 Z"
     id="path4535"
     inkscape:connector-curvature="0"
     style="fill:none" />
  <path
     d="m 2.4254278,6.2665036 c 0.9466993,0 1.7212714,-0.7745721 1.7212714,-1.7212714 0,-0.9466993 -0.7745721,-1.7212714 -1.7212714,-1.7212714 -0.9466993,0 -1.72127132,0.7745721 -1.72127132,1.7212714 0,0.9466993 0.77457202,1.7212714 1.72127132,1.7212714 z m 0,1.7212714 c -0.9466993,0 -1.72127132,0.7745721 -1.72127132,1.7212714 0,0.9466996 0.77457202,1.7212716 1.72127132,1.7212716 0.9466993,0 1.7212714,-0.774572 1.7212714,-1.7212716 0,-0.9466993 -0.7745721,-1.7212714 -1.7212714,-1.7212714 z m 0,5.163814 c -0.9466993,0 -1.72127132,0.774572 -1.72127132,1.721272 0,0.946699 0.77457202,1.721271 1.72127132,1.721271 0.9466993,0 1.7212714,-0.774572 1.7212714,-1.721271 0,-0.9467 -0.7745721,-1.721272 -1.7212714,-1.721272 z"
     id="path4537"
     style="fill:#cdcdcd;fill-opacity:1;stroke-width:0.8606357"
     inkscape:connector-curvature="0" />
</svg>
