<?xml version="1.0" encoding="UTF-8" standalone="no"?>
<svg
   xmlns:dc="http://purl.org/dc/elements/1.1/"
   xmlns:cc="http://creativecommons.org/ns#"
   xmlns:rdf="http://www.w3.org/1999/02/22-rdf-syntax-ns#"
   xmlns:svg="http://www.w3.org/2000/svg"
   xmlns="http://www.w3.org/2000/svg"
   xmlns:sodipodi="http://sodipodi.sourceforge.net/DTD/sodipodi-0.dtd"
   xmlns:inkscape="http://www.inkscape.org/namespaces/inkscape"
   height="16"
   viewBox="0 0 4.75 16"
   width="4.75"
   version="1.1"
   id="svg4539"
   sodipodi:docname="3dots-min.svg"
   style="fill:#000000"
   inkscape:version="0.92.1 r15371">
  <metadata
     id="metadata4545">
    <rdf:RDF>
      <cc:Work
         rdf:about="">
        <dc:format>image/svg+xml</dc:format>
        <dc:type
           rdf:resource="http://purl.org/dc/dcmitype/StillImage" />
        <dc:title></dc:title>
      </cc:Work>
    </rdf:RDF>
  </metadata>
  <defs
     id="defs4543" />
  <sodipodi:namedview
     pagecolor="#ffffff"
     bordercolor="#666666"
     borderopacity="1"
     objecttolerance="10"
     gridtolerance="10"
     guidetolerance="10"
     inkscape:pageopacity="0"
     inkscape:pageshadow="2"
     inkscape:window-width="1920"
     inkscape:window-height="1046"
     id="namedview4541"
     showgrid="false"
     inkscape:zoom="28.791097"
     inkscape:cx="0.79794294"
     inkscape:cy="6.6641056"
     inkscape:window-x="1920"
     inkscape:window-y="0"
     inkscape:window-maximized="1"
     inkscape:current-layer="svg4539" />
  <path
     d="M -10,-4 H 14 V 20 H -10 Z"
     id="path4535"
     inkscape:connector-curvature="0"
     style="fill:none" />
  <path
     d="m 2.370952,4.982677 c 0.8212219,0 1.4931307,-0.6719088 1.4931307,-1.4931308 0,-0.8212219 -0.6719088,-1.4931308 -1.4931307,-1.4931308 -0.821222,0 -1.49313072,0.6719089 -1.49313072,1.4931308 0,0.821222 0.67190872,1.4931308 1.49313072,1.4931308 z m 0,1.4931307 c -0.821222,0 -1.49313072,0.6719089 -1.49313072,1.4931307 0,0.8212218 0.67190872,1.4931307 1.49313072,1.4931307 0.8212219,0 1.4931307,-0.6719089 1.4931307,-1.4931307 0,-0.8212218 -0.6719088,-1.4931307 -1.4931307,-1.4931307 z m 0,4.4793913 c -0.821222,0 -1.49313072,0.671909 -1.49313072,1.493131 0,0.821222 0.67190872,1.493131 1.49313072,1.493131 0.8212219,0 1.4931307,-0.671909 1.4931307,-1.493131 0,-0.821222 -0.6719088,-1.493131 -1.4931307,-1.493131 z"
     id="path4537"
     style="fill:#cdcdcd;fill-opacity:1;stroke-width:0.74656534"
     inkscape:connector-curvature="0" />
</svg>
