<?xml version="1.0" encoding="UTF-8" standalone="no"?>
<svg
   xmlns:dc="http://purl.org/dc/elements/1.1/"
   xmlns:cc="http://creativecommons.org/ns#"
   xmlns:rdf="http://www.w3.org/1999/02/22-rdf-syntax-ns#"
   xmlns:svg="http://www.w3.org/2000/svg"
   xmlns="http://www.w3.org/2000/svg"
   xmlns:sodipodi="http://sodipodi.sourceforge.net/DTD/sodipodi-0.dtd"
   xmlns:inkscape="http://www.inkscape.org/namespaces/inkscape"
   version="1.1"
   width="14.379692"
   height="18.012993"
   viewBox="0 0 14.379692 18.012993"
   id="svg865"
   sodipodi:docname="add-document2.svg"
   inkscape:version="0.92.2 (unknown)">
  <metadata
     id="metadata871">
    <rdf:RDF>
      <cc:Work
         rdf:about="">
        <dc:format>image/svg+xml</dc:format>
        <dc:type
           rdf:resource="http://purl.org/dc/dcmitype/StillImage" />
        <dc:title></dc:title>
      </cc:Work>
    </rdf:RDF>
  </metadata>
  <defs
     id="defs869" />
  <sodipodi:namedview
     pagecolor="#ffffff"
     bordercolor="#666666"
     borderopacity="1"
     objecttolerance="10"
     gridtolerance="10"
     guidetolerance="10"
     inkscape:pageopacity="0"
     inkscape:pageshadow="2"
     inkscape:window-width="1920"
     inkscape:window-height="1056"
     id="namedview867"
     showgrid="false"
     inkscape:zoom="38.083333"
     inkscape:cx="3.211544"
     inkscape:cy="7.2720724"
     inkscape:window-x="1366"
     inkscape:window-y="24"
     inkscape:window-maximized="1"
     inkscape:current-layer="svg865" />
  <path
     style="fill:#787878;fill-opacity:1;stroke:#787878;stroke-width:0.03375465;stroke-opacity:1"
     d="M 1.5690527,17.975624 C 0.86175714,17.882683 0.24413859,17.34666 0.06883254,16.673616 0.02309483,16.498039 0.01709159,15.608104 0.01709159,9.012492 c 0,-8.22026218 -0.01505308,-7.6371475 0.2079729,-8.05558968 0.24215792,-0.4543344 0.78012501,-0.8302667 1.29450321,-0.9045989 0.1469122,-0.021236 1.5982529,-0.034339 3.847714,-0.034756 l 3.6118254,-6.688e-4 2.6918549,2.69201168 2.691853,2.6920115 v 5.5201522 c 0,4.77993 -0.0067,5.546031 -0.05026,5.71313 -0.155282,0.596168 -0.608464,1.081692 -1.196223,1.281594 l -0.221841,0.07545 -5.5695162,0.0045 c -3.0632338,0.0024 -5.6533972,-0.0066 -5.7559176,-0.02005 z M 6.2954539,14.868923 V 13.518738 H 7.6456394 8.9958249 V 12.607361 11.695986 H 7.6456394 6.2954539 V 10.3458 8.9956135 H 5.3840779 4.4727032 V 10.3458 11.695986 H 3.1225177 1.772331 v 0.911375 0.911377 h 1.3501867 1.3501855 v 1.350185 1.350185 h 0.9113747 0.911376 z M 13.046383,6.3204731 c 0,-0.00463 -1.116435,-1.1248829 -2.480967,-2.4893194 L 8.0844502,1.3503598 v 2.489318 2.4893194 h 2.4809658 c 1.364532,0 2.480967,-0.00386 2.480967,-0.00848 z"
     id="path873"
     inkscape:connector-curvature="0" />
  <path
     style="fill:#ffffff;fill-opacity:1;stroke:none;stroke-width:0.02625821;stroke-opacity:1"
     d="M 4.4929445,14.845078 V 13.49278 H 3.1406469 1.7883492 v -0.879649 -0.87965 H 3.1406469 4.4929445 V 10.381183 9.0288854 h 0.892779 0.892779 v 1.3522976 1.352298 H 7.617671 8.9568395 v 0.87965 0.879649 H 7.617671 6.2785025 v 1.352298 1.352298 h -0.892779 -0.892779 z"
     id="path1456"
     inkscape:connector-curvature="0" />
  <path
     style="fill:#ffffff;fill-opacity:1;stroke:none;stroke-width:0.02625821;stroke-opacity:1"
     d="M 4.4929445,14.845078 V 13.49278 H 3.1406469 1.7883492 v -0.879649 -0.87965 H 3.1406469 4.4929445 V 10.381183 9.0288854 h 0.892779 0.892779 v 1.3522976 1.352298 H 7.617671 8.9568395 v 0.87965 0.879649 H 7.617671 6.2785025 v 1.352298 1.352298 h -0.892779 -0.892779 z"
     id="path1458"
     inkscape:connector-curvature="0" />
  <path
     style="fill:#ffffff;fill-opacity:1;stroke:none;stroke-width:0.02625821;stroke-opacity:1"
     d="M 8.1165769,3.8626366 V 1.4272413 l 2.4288841,2.4287776 c 1.335886,1.3358276 2.428884,2.4317556 2.428884,2.4353953 0,0.00364 -1.092998,0.00662 -2.428884,0.00662 H 8.1165769 Z"
     id="path1460"
     inkscape:connector-curvature="0" />
</svg>
