<?xml version="1.0" encoding="UTF-8" standalone="no"?>
<svg
   xmlns:dc="http://purl.org/dc/elements/1.1/"
   xmlns:cc="http://creativecommons.org/ns#"
   xmlns:rdf="http://www.w3.org/1999/02/22-rdf-syntax-ns#"
   xmlns:svg="http://www.w3.org/2000/svg"
   xmlns="http://www.w3.org/2000/svg"
   xmlns:sodipodi="http://sodipodi.sourceforge.net/DTD/sodipodi-0.dtd"
   xmlns:inkscape="http://www.inkscape.org/namespaces/inkscape"
   version="1.1"
   data-icon="box"
   viewBox="0 0 19.19992 18"
   x="0px"
   y="0px"
   id="svg5855"
   sodipodi:docname="add-box.svg"
   width="19.199921"
   height="18"
   inkscape:version="0.92.2 (unknown)">
  <metadata
     id="metadata5861">
    <rdf:RDF>
      <cc:Work
         rdf:about="">
        <dc:format>image/svg+xml</dc:format>
        <dc:type
           rdf:resource="http://purl.org/dc/dcmitype/StillImage" />
        <dc:title />
      </cc:Work>
    </rdf:RDF>
  </metadata>
  <defs
     id="defs5859" />
  <sodipodi:namedview
     pagecolor="#ffffff"
     bordercolor="#666666"
     borderopacity="1"
     objecttolerance="10"
     gridtolerance="10"
     guidetolerance="10"
     inkscape:pageopacity="0"
     inkscape:pageshadow="2"
     inkscape:window-width="1920"
     inkscape:window-height="1056"
     id="namedview5857"
     showgrid="false"
     inkscape:zoom="32"
     inkscape:cx="2.4201219"
     inkscape:cy="8.2184596"
     inkscape:window-x="1366"
     inkscape:window-y="24"
     inkscape:window-maximized="1"
     inkscape:current-layer="svg5855"
     inkscape:measure-start="0,7.49091"
     inkscape:measure-end="14.9266,7.49091" />
  <path
     d="M 0,0 V 2.39984 H 19.19872 V 0 Z M 0,3.59976 V 17.774415 C 0,17.894407 0.10439304,18 0.22558496,18 H 18.974335 c 0.119996,0 0.225585,-0.135591 0.225585,-0.375575 V 3.59976 H 0.00119992 Z m 7.425105,2.3998401 h 4.19972 c 0.239984,0 0.375575,0.1055931 0.375575,0.2255848 V 8.175055 c 0,0.1199918 -0.105593,0.225585 -0.225585,0.225585 H 7.425105 C 7.3051132,8.40064 7.19952,8.2950468 7.19952,8.175055 V 6.2251849 c 0,-0.1199918 0.1055932,-0.2255848 0.225585,-0.2255848 z"
     id="path5849"
     style="fill:#787878;fill-opacity:1;stroke-width:1.19991994"
     inkscape:connector-curvature="0" />
  <path
     style="fill:#787878;fill-opacity:1;stroke-width:0.02234576"
     d="M 5.2540449,10.885754 5.1920987,10.81688 V 9.7647272 8.7125753 l 0.061947,-0.068875 0.061946,-0.068874 h 1.9837575 c 2.1353846,0 2.0819261,-0.00298 2.159758,0.1205662 0.030639,0.048638 0.034557,0.1689983 0.034557,1.0616884 0,0.7304191 -0.00695,1.0237931 -0.025317,1.0686141 -0.054945,0.134077 0.030721,0.128934 -2.1474354,0.128934 H 5.3159906 Z"
     id="path3757"
     inkscape:connector-curvature="0" />
  <path
     style="fill:#787878;fill-opacity:1;stroke:#787878;stroke-width:0.03125;stroke-opacity:1"
     d="M 0.13625018,17.956698 C 0.10187518,17.937205 0.06341864,17.905993 0.0507912,17.887336 0.03816377,17.86868 0.02761689,14.650681 0.0273537,10.736228 L 0.02687518,3.6190404 H 9.6052014 19.183527 l -0.008,7.1068586 -0.008,7.106859 -0.07576,0.08064 -0.07576,0.08064 -9.4086145,-9.5e-4 c -6.9551199,-7e-4 -9.4249407,-0.01019 -9.47114232,-0.03639 z M 7.3490802,8.3687667 C 7.3114492,8.3536076 7.2592777,8.3017645 7.2331439,8.2535601 7.2070099,8.2053554 7.1850646,8.181597 7.1843764,8.2007636 c -0.00215,0.059854 0.1257053,0.1996243 0.1807044,0.1975459 0.03842,-0.00145 0.034147,-0.00934 -0.016001,-0.029543 z m 4.5770918,-0.017123 c 0.0382,-0.026756 0.06945,-0.0646 0.06945,-0.084098 0,-0.019498 -0.01758,-0.013418 -0.03906,0.013512 -0.02148,0.026929 -0.06719,0.064346 -0.101563,0.083147 -0.03438,0.018802 -0.04805,0.034612 -0.03039,0.035135 0.01766,5.219e-4 0.06336,-0.020941 0.101563,-0.047696 z M 7.2063536,6.3768529 c -0.00586,-0.1332031 -0.010651,-0.024219 -0.010651,0.2421875 0,0.2664063 0.00479,0.3753907 0.010651,0.2421875 0.00586,-0.1332031 0.00586,-0.3511718 0,-0.484375 z M 11.995625,6.1498311 c 0,-0.044912 -0.190893,-0.1558026 -0.265625,-0.1543022 -0.03516,7.06e-4 -0.0078,0.020572 0.0625,0.04542 0.06875,0.024291 0.138991,0.065861 0.15609,0.092378 0.03634,0.056357 0.04704,0.060109 0.04704,0.016504 z M 7.3706252,6.0252904 c 0.025781,-0.016661 0.032812,-0.030293 0.015625,-0.030293 -0.017188,0 -0.052344,0.013632 -0.078125,0.030293 -0.025781,0.016661 -0.032813,0.030293 -0.015625,0.030293 0.017187,0 0.052344,-0.013632 0.078125,-0.030293 z"
     id="path1111"
     inkscape:connector-curvature="0" />
  <path
     sodipodi:nodetypes="ccccccccccccccccccccccccc"
     inkscape:connector-curvature="0"
     id="use1437-3"
     d="m 8.7142118,12.839076 -0.01097,-1.125673 -1.248246,-9.4e-5 -1.457656,9.4e-5 0.0051,-0.965246 -0.0051,-0.8454514 1.552394,-8.322e-4 1.153508,8.322e-4 -0.01265,-1.2410358 0.01265,-1.4750079 0.877823,-0.00303 0.9261122,0.00303 0.01175,1.522553 -0.01175,1.1934907 1.085944,-8.322e-4 1.619958,8.322e-4 -9.92e-4,0.8454514 9.92e-4,0.965246 -1.548905,-9.4e-5 -1.156997,9.4e-5 -0.01188,1.125673 0.01188,1.590371 -0.8986742,-0.0092 -0.905261,0.0092 z"
     style="fill:#ffffff;fill-opacity:1;stroke-width:0.00883632" />
</svg>
