<?xml version="1.0" encoding="UTF-8" standalone="no"?>
<svg
   xmlns:dc="http://purl.org/dc/elements/1.1/"
   xmlns:cc="http://creativecommons.org/ns#"
   xmlns:rdf="http://www.w3.org/1999/02/22-rdf-syntax-ns#"
   xmlns:svg="http://www.w3.org/2000/svg"
   xmlns="http://www.w3.org/2000/svg"
   xmlns:sodipodi="http://sodipodi.sourceforge.net/DTD/sodipodi-0.dtd"
   xmlns:inkscape="http://www.inkscape.org/namespaces/inkscape"
   version="1.1"
   width="11.186162"
   height="14.012562"
   viewBox="0 0 11.186162 14.012562"
   id="svg865"
   sodipodi:docname="file-plus-new.svg"
   inkscape:version="0.92.2 (unknown)">
  <metadata
     id="metadata871">
    <rdf:RDF>
      <cc:Work
         rdf:about="">
        <dc:format>image/svg+xml</dc:format>
        <dc:type
           rdf:resource="http://purl.org/dc/dcmitype/StillImage" />
      </cc:Work>
    </rdf:RDF>
  </metadata>
  <defs
     id="defs869" />
  <sodipodi:namedview
     pagecolor="#ffffff"
     bordercolor="#666666"
     borderopacity="1"
     objecttolerance="10"
     gridtolerance="10"
     guidetolerance="10"
     inkscape:pageopacity="0"
     inkscape:pageshadow="2"
     inkscape:window-width="1920"
     inkscape:window-height="1056"
     id="namedview867"
     showgrid="false"
     inkscape:zoom="38.083333"
     inkscape:cx="12.008043"
     inkscape:cy="7.2720794"
     inkscape:window-x="1366"
     inkscape:window-y="24"
     inkscape:window-maximized="1"
     inkscape:current-layer="svg865" />
  <path
     style="fill:#787878;fill-opacity:1;stroke:#787878;stroke-width:0.02625821;stroke-opacity:1"
     d="m 1.2205878,13.983487 c -0.55021499,-0.0723 -1.03066902,-0.48928 -1.16704202,-1.01285 -0.03558,-0.136584 -0.04025,-0.828877 -0.04025,-5.9596949 0,-6.39465579 -0.01171,-5.9410428 0.161785,-6.26655479 0.188378,-0.353433 0.60687003,-0.645876 1.00701202,-0.7037 0.114285,-0.01652 1.243303,-0.026713 2.99319,-0.027037 l 2.809689,-5.202e-4 2.094031,2.09415319 2.0940302,2.094153 v 4.2942028 c 0,3.7183739 -0.0052,4.3143339 -0.0391,4.4443229 -0.120796,0.463767 -0.473332,0.841463 -0.930558,0.99697 l -0.172573,0.05869 -4.3326042,0.0035 c -2.382932,0.0019 -4.397856,-0.0051 -4.477608,-0.0156 z m 3.676733,-2.416746 v -1.050328 h 1.050328 1.050328 V 9.8074401 9.0984691 h -1.050328 -1.050328 v -1.050328 -1.050329 h -0.708972 -0.708971 v 1.050329 1.050328 h -1.050328 -1.050329 v 0.708971 0.7089729 h 1.050329 1.050328 v 1.050328 1.050328 h 0.708971 0.708972 z M 10.148962,4.9167833 c 0,-0.0036 -0.8684902,-0.875062 -1.9299782,-1.936476 l -1.929978,-1.929844 v 1.936475 1.936476 h 1.929978 c 1.061488,0 1.9299782,-0.003 1.9299782,-0.0066 z"
     id="path873"
     inkscape:connector-curvature="0" />
</svg>
