<?xml version="1.0" encoding="UTF-8" standalone="no"?>
<!-- Generator: Gravit.io -->

<svg
   xmlns:dc="http://purl.org/dc/elements/1.1/"
   xmlns:cc="http://creativecommons.org/ns#"
   xmlns:rdf="http://www.w3.org/1999/02/22-rdf-syntax-ns#"
   xmlns:svg="http://www.w3.org/2000/svg"
   xmlns="http://www.w3.org/2000/svg"
   xmlns:sodipodi="http://sodipodi.sourceforge.net/DTD/sodipodi-0.dtd"
   xmlns:inkscape="http://www.inkscape.org/namespaces/inkscape"
   style="isolation:isolate"
   viewBox="0 0 18 18"
   width="18"
   height="18"
   version="1.1"
   id="svg881"
   sodipodi:docname="add-box.svg"
   inkscape:version="0.92.2 (unknown)">
  <metadata
     id="metadata885">
    <rdf:RDF>
      <cc:Work
         rdf:about="">
        <dc:format>image/svg+xml</dc:format>
        <dc:type
           rdf:resource="http://purl.org/dc/dcmitype/StillImage" />
      </cc:Work>
    </rdf:RDF>
  </metadata>
  <sodipodi:namedview
     pagecolor="#ffffff"
     bordercolor="#666666"
     borderopacity="1"
     objecttolerance="10"
     gridtolerance="10"
     guidetolerance="10"
     inkscape:pageopacity="0"
     inkscape:pageshadow="2"
     inkscape:window-width="1920"
     inkscape:window-height="1056"
     id="namedview883"
     showgrid="false"
     inkscape:zoom="19.041667"
     inkscape:cx="13.124569"
     inkscape:cy="7.8640275"
     inkscape:window-x="1366"
     inkscape:window-y="24"
     inkscape:window-maximized="1"
     inkscape:current-layer="svg881" />
  <defs
     id="defs873">
    <clipPath
       id="_clipPath_2lBQHZB5CVCgkRS2jD234hxtxWMpPuRe">
      <rect
         width="24"
         height="24"
         id="rect870"
         x="0"
         y="0" />
    </clipPath>
  </defs>
  <g
     clip-path="url(#_clipPath_2lBQHZB5CVCgkRS2jD234hxtxWMpPuRe)"
     id="g879"
     style="fill:#787878;fill-opacity:1"
     transform="translate(-3,-3)">
    <path
       d="m 19,15 h -4 c 0,1.657 -1.343,3 -3,3 -1.657,0 -3,-1.343 -3,-3 H 5 V 5 h 12 2 M 19,3 H 5 C 3.89,3 3,3.9 3,5 v 14 c 0,1.105 0.895,2 2,2 h 14 c 1.105,0 2,-0.895 2,-2 V 5 C 21,3.895 20.105,3 19,3 Z"
       id="path875"
       inkscape:connector-curvature="0"
       style="fill:#787878;fill-opacity:1" />
    <path
       d="m 8,9 h 3 V 6 h 2 v 3 h 3 v 2 h -3 v 3 H 11 V 11 H 8 Z"
       id="path877"
       inkscape:connector-curvature="0"
       style="fill:#787878;fill-opacity:1" />
  </g>
</svg>
