<?xml version="1.0" encoding="UTF-8" standalone="no"?>
<svg
   xmlns:dc="http://purl.org/dc/elements/1.1/"
   xmlns:cc="http://creativecommons.org/ns#"
   xmlns:rdf="http://www.w3.org/1999/02/22-rdf-syntax-ns#"
   xmlns:svg="http://www.w3.org/2000/svg"
   xmlns="http://www.w3.org/2000/svg"
   xmlns:sodipodi="http://sodipodi.sourceforge.net/DTD/sodipodi-0.dtd"
   xmlns:inkscape="http://www.inkscape.org/namespaces/inkscape"
   version="1.1"
   data-icon="box"
   viewBox="0 0 14.933271 14"
   x="0px"
   y="0px"
   id="svg5855"
   sodipodi:docname="add-box.svg"
   width="14.933271"
   height="14"
   inkscape:version="0.92.2 (unknown)">
  <metadata
     id="metadata5861">
    <rdf:RDF>
      <cc:Work
         rdf:about="">
        <dc:format>image/svg+xml</dc:format>
        <dc:type
           rdf:resource="http://purl.org/dc/dcmitype/StillImage" />
        <dc:title />
      </cc:Work>
    </rdf:RDF>
  </metadata>
  <defs
     id="defs5859" />
  <sodipodi:namedview
     pagecolor="#ffffff"
     bordercolor="#666666"
     borderopacity="1"
     objecttolerance="10"
     gridtolerance="10"
     guidetolerance="10"
     inkscape:pageopacity="0"
     inkscape:pageshadow="2"
     inkscape:window-width="1920"
     inkscape:window-height="1056"
     id="namedview5857"
     showgrid="false"
     inkscape:zoom="45.254834"
     inkscape:cx="9.4769931"
     inkscape:cy="6.301075"
     inkscape:window-x="1366"
     inkscape:window-y="24"
     inkscape:window-maximized="1"
     inkscape:current-layer="svg5855"
     inkscape:measure-start="0,7.49091"
     inkscape:measure-end="14.9266,7.49091" />
  <path
     d="M 0,0 V 1.8665422 H 14.932338 V 0 Z M 0,2.7998133 V 13.824545 C 0,13.917872 0.08119459,14 0.17545497,14 H 14.757816 c 0.09333,0 0.175455,-0.10546 0.175455,-0.292114 V 2.7998133 H 9.3327112e-4 Z m 5.7750817,1.8665423 h 3.2664489 c 0.1866542,0 0.2921138,0.082128 0.2921138,0.1754549 v 1.5165656 c 0,0.093327 -0.082128,0.175455 -0.1754549,0.175455 H 5.7750817 c -0.093327,0 -0.175455,-0.082128 -0.175455,-0.175455 V 4.8418105 c 0,-0.093327 0.082128,-0.1754549 0.175455,-0.1754549 z"
     id="path5849"
     style="fill:#787878;fill-opacity:1;stroke-width:0.93327111"
     inkscape:connector-curvature="0" />
  <path
     style="fill:#787878;fill-opacity:1;stroke-width:0.02234576"
     d="M 5.2540449,6.8857538 5.1920987,6.8168798 V 5.7647272 4.7125753 l 0.061947,-0.068875 0.061946,-0.068874 h 1.9837575 c 2.1353846,0 2.0819261,-0.00298 2.159758,0.1205662 0.030639,0.048638 0.034557,0.1689983 0.034557,1.0616884 0,0.7304189 -0.00695,1.0237933 -0.025317,1.0686136 C 9.413802,6.9597724 9.4994682,6.954629 7.3213118,6.954629 H 5.3159906 Z"
     id="path3757"
     inkscape:connector-curvature="0" />
  <path
     style="fill:#ffffff;fill-opacity:1;stroke-width:0.00682926"
     d="m 6.9999143,9.8889462 -0.00853,-0.868365 -0.9665294,-7.2e-5 -1.1286772,7.2e-5 0.00401,-0.7446065 -0.00401,-0.6521979 1.202034,-6.425e-4 0.8931726,6.425e-4 -0.00981,-0.9573586 0.00981,-1.137848 0.6797065,-0.00226 0.7170983,0.00226 0.0091,1.1745253 -0.0091,0.9206813 0.8408575,-6.428e-4 1.2543484,6.428e-4 -7.68e-4,0.6521979 7.68e-4,0.7446065 -1.1993318,-7.2e-5 -0.8958739,7.2e-5 -0.00924,0.868365 0.00924,1.2268408 -0.6958532,-0.0071 -0.7009514,0.0071 z"
     id="path4626"
     inkscape:connector-curvature="0"
     sodipodi:nodetypes="ccccccccccccccccccccccccc" />
</svg>
