<?xml version="1.0" encoding="UTF-8" standalone="no"?>
<svg
  xmlns:dc="http://purl.org/dc/elements/1.1/"
  xmlns:cc="http://creativecommons.org/ns#"
  xmlns:rdf="http://www.w3.org/1999/02/22-rdf-syntax-ns#"
  xmlns:svg="http://www.w3.org/2000/svg"
  xmlns:sodipodi="http://sodipodi.sourceforge.net/DTD/sodipodi-0.dtd"
  xmlns:inkscape="http://www.inkscape.org/namespaces/inkscape"
  xmlns="http://www.w3.org/2000/svg"
  fill="#000000"
  height="24"
  viewBox="0 0 24 24"
  width="24"
  version="1.1"
  id="svg4539"
  sodipodi:docname="apps.svg"
  inkscape:version="0.92.1 r15371">
  <metadata
    id="metadata4545">
    <rdf:RDF>
      <cc:Work
        rdf:about="">
        <dc:format>image/svg+xml</dc:format>
        <dc:type
          rdf:resource="http://purl.org/dc/dcmitype/StillImage"/>
      </cc:Work>
    </rdf:RDF>
  </metadata>
  <defs
    id="defs4543"/>
  <sodipodi:namedview
    pagecolor="#ffffff"
    bordercolor="#666666"
    borderopacity="1"
    objecttolerance="10"
    gridtolerance="10"
    guidetolerance="10"
    inkscape:pageopacity="0"
    inkscape:pageshadow="2"
    inkscape:window-width="1920"
    inkscape:window-height="1019"
    id="namedview4541"
    showgrid="false"
    inkscape:zoom="35.208333"
    inkscape:cx="12.113609"
    inkscape:cy="12"
    inkscape:window-x="0"
    inkscape:window-y="27"
    inkscape:window-maximized="1"
    inkscape:current-layer="svg4539"/>
  <path
    d="M4 8h4V4H4v4zm6 12h4v-4h-4v4zm-6 0h4v-4H4v4zm0-6h4v-4H4v4zm6 0h4v-4h-4v4zm6-10v4h4V4h-4zm-6 4h4V4h-4v4zm6 6h4v-4h-4v4zm0 6h4v-4h-4v4z"
    id="path4535"
    style="fill:#d5d5d5;fill-opacity:1"/>
  <path
    d="M0 0h24v24H0z"
    fill="none"
    id="path4537"/>
</svg>
