<?xml version="1.0" encoding="UTF-8" standalone="no"?>
<svg
   xmlns:dc="http://purl.org/dc/elements/1.1/"
   xmlns:cc="http://creativecommons.org/ns#"
   xmlns:rdf="http://www.w3.org/1999/02/22-rdf-syntax-ns#"
   xmlns:svg="http://www.w3.org/2000/svg"
   xmlns="http://www.w3.org/2000/svg"
   xmlns:sodipodi="http://sodipodi.sourceforge.net/DTD/sodipodi-0.dtd"
   xmlns:inkscape="http://www.inkscape.org/namespaces/inkscape"
   height="16"
   viewBox="0 0 16 16"
   width="16"
   version="1.1"
   id="svg6651"
   sodipodi:docname="birthday.svg"
   style="fill:#000000"
   inkscape:version="0.92.1 r15371">
  <metadata
     id="metadata6657">
    <rdf:RDF>
      <cc:Work
         rdf:about="">
        <dc:format>image/svg+xml</dc:format>
        <dc:type
           rdf:resource="http://purl.org/dc/dcmitype/StillImage" />
        <dc:title />
      </cc:Work>
    </rdf:RDF>
  </metadata>
  <defs
     id="defs6655" />
  <sodipodi:namedview
     pagecolor="#ffffff"
     bordercolor="#666666"
     borderopacity="1"
     objecttolerance="10"
     gridtolerance="10"
     guidetolerance="10"
     inkscape:pageopacity="0"
     inkscape:pageshadow="2"
     inkscape:window-width="1920"
     inkscape:window-height="1019"
     id="namedview6653"
     showgrid="false"
     inkscape:zoom="6.585502"
     inkscape:cx="-52.519486"
     inkscape:cy="11.852248"
     inkscape:window-x="0"
     inkscape:window-y="27"
     inkscape:window-maximized="1"
     inkscape:current-layer="svg6651" />
  <path
     d="M -3,-6 H 21 V 18 H -3 Z"
     id="path6647"
     inkscape:connector-curvature="0"
     style="fill:none" />
  <path
     d="m 8.0056392,4.363636 c 0.8072704,0 1.4545525,-0.6545452 1.4545525,-1.4545452 0,-0.276363 -0.072721,-0.5309089 -0.21091,-0.7490908 L 8.0056392,0 6.7619926,2.16 C 6.6238073,2.3781819 6.5510801,2.6327278 6.5510801,2.9090908 c 0,0.8 0.6545517,1.4545452 1.4545591,1.4545452 z m 3.3454738,7.265456 -0.778192,-0.778184 -0.7854494,0.778184 c -0.9454648,0.945449 -2.6036593,0.952727 -3.5563938,0 L 5.452891,10.850908 4.6601576,11.629092 c -0.4727311,0.472727 -1.1054618,0.734545 -1.7745584,0.734545 -0.5309119,0 -1.018189,-0.167274 -1.4254641,-0.443637 v 3.352722 c 0,0.4 0.3272745,0.727278 0.7272773,0.727278 H 13.823859 c 0.400003,0 0.727276,-0.327278 0.727276,-0.727278 V 11.92 c -0.407274,0.276363 -0.894551,0.443637 -1.425459,0.443637 -0.669101,0 -1.301831,-0.261818 -1.774563,-0.734545 z M 12.369304,6.545457 H 8.7329089 V 5.090908 H 7.2783564 V 6.545457 H 3.6419685 c -1.2072806,0 -2.1818334,0.974543 -2.1818334,2.181821 v 1.12 c 0,0.785444 0.6400045,1.425444 1.4254641,1.425444 0.3781849,0 0.7418234,-0.145444 1.0036438,-0.414541 l 1.5563742,-1.549089 1.5491012,1.549089 c 0.5381819,0.538182 1.4763746,0.538182 2.0145619,0 l 1.5563777,-1.549089 1.549093,1.549089 c 0.269098,0.269097 0.625463,0.414541 1.003647,0.414541 0.785462,0 1.425466,-0.64 1.425466,-1.425444 v -1.12 C 14.551498,7.52 13.576583,6.545457 12.369304,6.545457 Z"
     id="path6649"
     style="fill:#a6a6a6;fill-opacity:1;stroke-width:0.72727555"
     inkscape:connector-curvature="0" />
</svg>
