<svg xmlns:xlink="http://www.w3.org/1999/xlink" xmlns="http://www.w3.org/2000/svg" version="1.1" x="0px" y="0px" viewBox="0 0 32 40" enable-background="new 0 0 32 32" xml:space="preserve"><g display="none"><rect x="-56" y="-105.005" display="inline" fill="#000000" width="426" height="232.5"/></g><g display="none"><polygon display="inline" fill="#000000" points="16,7.372 32,3.619 32,24.628 16,28.381 0,24.628 0,3.619  "/><g display="inline"><g><line fill="#000000" stroke="#FFFFFF" stroke-miterlimit="10" x1="18.905" y1="22.739" x2="29.638" y2="20.221"/><line fill="#000000" stroke="#FFFFFF" stroke-miterlimit="10" x1="18.905" y1="19.086" x2="29.638" y2="16.568"/><line fill="#000000" stroke="#FFFFFF" stroke-miterlimit="10" x1="18.905" y1="15.432" x2="29.638" y2="12.914"/><line fill="#000000" stroke="#FFFFFF" stroke-miterlimit="10" x1="18.905" y1="11.779" x2="29.638" y2="9.261"/></g><g><line fill="#000000" stroke="#FFFFFF" stroke-miterlimit="10" x1="13.095" y1="22.739" x2="2.362" y2="20.221"/><line fill="#000000" stroke="#FFFFFF" stroke-miterlimit="10" x1="13.095" y1="19.086" x2="2.362" y2="16.568"/><line fill="#000000" stroke="#FFFFFF" stroke-miterlimit="10" x1="13.095" y1="15.432" x2="2.362" y2="12.914"/><line fill="#000000" stroke="#FFFFFF" stroke-miterlimit="10" x1="13.095" y1="11.779" x2="2.362" y2="9.261"/></g></g><g display="inline"><defs><polygon id="b" points="16,7.372 32,3.619 32,24.628 16,28.381 0,24.628 0,3.619    "/></defs><clipPath id="a"><use xlink:href="#b" overflow="visible"/></clipPath><line clip-path="url(#a)" fill="#000000" stroke="#FFFFFF" stroke-miterlimit="10" x1="16" y1="6.708" x2="16" y2="29.175"/></g></g><g display="none"><circle display="inline" fill="#000000" cx="16" cy="16" r="16"/><g display="inline"><path fill="#000000" d="M16,25.639l-0.079-0.019L5,23.059V8.361l11,2.581l11-2.581v14.699L16,25.639z M5.688,22.514L16,24.933    l10.312-2.419V9.228L16,11.648l-0.079-0.019L5.688,9.228V22.514z"/><rect x="15.656" y="11.295" fill="#000000" width="0.688" height="13.992"/><rect x="17.52" y="20.464" transform="matrix(0.9735 -0.2287 0.2287 0.9735 -4.1942 5.4252)" fill="#000000" width="7.579" height="0.687"/><rect x="17.52" y="17.953" transform="matrix(0.9735 -0.2287 0.2287 0.9735 -3.6197 5.3587)" fill="#000000" width="7.579" height="0.687"/><rect x="17.52" y="15.441" transform="matrix(0.9735 -0.2287 0.2287 0.9735 -3.0454 5.2921)" fill="#000000" width="7.579" height="0.687"/><rect x="17.52" y="12.93" transform="matrix(0.9735 -0.2287 0.2287 0.9735 -2.4709 5.2255)" fill="#000000" width="7.579" height="0.687"/><rect x="10.337" y="17.018" transform="matrix(0.2284 -0.9736 0.9736 0.2284 -12.0166 26.4529)" fill="#000000" width="0.687" height="7.58"/><rect x="10.337" y="14.506" transform="matrix(0.2284 -0.9736 0.9736 0.2284 -9.5714 24.515)" fill="#000000" width="0.687" height="7.58"/><rect x="10.337" y="11.995" transform="matrix(0.2284 -0.9736 0.9736 0.2284 -7.1259 22.5789)" fill="#000000" width="0.687" height="7.579"/><rect x="10.337" y="9.483" transform="matrix(0.2284 -0.9736 0.9736 0.2284 -4.6806 20.6408)" fill="#000000" width="0.687" height="7.579"/></g></g><g display="none"><polygon display="inline" fill="none" stroke="#000000" stroke-miterlimit="10" points="16,7.642 31.5,4.006 31.5,24.358    16,27.994 0.5,24.358 0.5,4.006  "/><line display="inline" fill="none" stroke="#000000" stroke-miterlimit="10" x1="16" y1="7.642" x2="16" y2="27.994"/><g display="inline"><line fill="none" stroke="#000000" stroke-miterlimit="10" x1="18.356" y1="22.739" x2="29.089" y2="20.221"/><line fill="none" stroke="#000000" stroke-miterlimit="10" x1="18.356" y1="19.086" x2="29.089" y2="16.568"/><line fill="none" stroke="#000000" stroke-miterlimit="10" x1="18.356" y1="15.432" x2="29.089" y2="12.914"/><line fill="none" stroke="#000000" stroke-miterlimit="10" x1="18.356" y1="11.779" x2="29.089" y2="9.261"/></g><g display="inline"><line fill="none" stroke="#000000" stroke-miterlimit="10" x1="13.63" y1="22.739" x2="2.896" y2="20.221"/><line fill="none" stroke="#000000" stroke-miterlimit="10" x1="13.63" y1="19.086" x2="2.896" y2="16.568"/><line fill="none" stroke="#000000" stroke-miterlimit="10" x1="13.63" y1="15.432" x2="2.896" y2="12.914"/><line fill="none" stroke="#000000" stroke-miterlimit="10" x1="13.63" y1="11.779" x2="2.896" y2="9.261"/></g></g><g><path d="M15.5,7.255L0,3.619v21.008l15.5,3.636V7.255z M13.516,23.225L2.782,20.707l0.229-0.973l10.733,2.519L13.516,23.225z    M13.516,19.572L2.782,17.053l0.229-0.973l10.733,2.519L13.516,19.572z M13.516,15.919L2.782,13.401l0.229-0.973l10.733,2.518   L13.516,15.919z M13.516,12.265L2.782,9.748l0.229-0.973l10.733,2.518L13.516,12.265z"/><path d="M16.5,28.264L32,24.627V3.619L16.5,7.255V28.264z M28.975,8.775l0.229,0.973l-10.732,2.518l-0.229-0.973L28.975,8.775z    M28.975,12.428l0.229,0.973l-10.732,2.518l-0.229-0.973L28.975,12.428z M28.975,16.081l0.229,0.973l-10.732,2.519l-0.229-0.973   L28.975,16.081z M28.975,19.734l0.229,0.973l-10.732,2.519l-0.229-0.973L28.975,19.734z"/></g><text x="0" y="47" fill="#000000" font-size="5px" font-weight="bold" font-family="'Helvetica Neue', Helvetica, Arial-Unicode, Arial, Sans-serif">Created by AlfredoCreates.com</text><text x="0" y="52" fill="#000000" font-size="5px" font-weight="bold" font-family="'Helvetica Neue', Helvetica, Arial-Unicode, Arial, Sans-serif">from the Noun Project</text></svg>