<?xml version="1.0" encoding="UTF-8" standalone="no"?>
<svg
   xmlns:dc="http://purl.org/dc/elements/1.1/"
   xmlns:cc="http://creativecommons.org/ns#"
   xmlns:rdf="http://www.w3.org/1999/02/22-rdf-syntax-ns#"
   xmlns:svg="http://www.w3.org/2000/svg"
   xmlns="http://www.w3.org/2000/svg"
   xmlns:xlink="http://www.w3.org/1999/xlink"
   xmlns:sodipodi="http://sodipodi.sourceforge.net/DTD/sodipodi-0.dtd"
   xmlns:inkscape="http://www.inkscape.org/namespaces/inkscape"
   version="1.1"
   x="0px"
   y="0px"
   viewBox="0 0 22 22"
   enable-background="new 0 0 32 32"
   xml:space="preserve"
   id="svg10687"
   sodipodi:docname="book-icon-white.svg"
   width="22"
   height="22"
   inkscape:version="0.92.1 r15371"><metadata
     id="metadata10693"><rdf:RDF><cc:Work
         rdf:about=""><dc:format>image/svg+xml</dc:format><dc:type
           rdf:resource="http://purl.org/dc/dcmitype/StillImage" /><dc:title /></cc:Work></rdf:RDF></metadata><defs
     id="defs10691" /><sodipodi:namedview
     pagecolor="#ffffff"
     bordercolor="#666666"
     borderopacity="1"
     objecttolerance="10"
     gridtolerance="10"
     guidetolerance="10"
     inkscape:pageopacity="0"
     inkscape:pageshadow="2"
     inkscape:window-width="1920"
     inkscape:window-height="1019"
     id="namedview10689"
     showgrid="false"
     inkscape:zoom="11.8"
     inkscape:cx="2.1734842"
     inkscape:cy="16.093007"
     inkscape:window-x="0"
     inkscape:window-y="27"
     inkscape:window-maximized="1"
     inkscape:current-layer="g10681" /><g
     id="g10681"
     transform="translate(-0.48899044,-6.0292488)"><circle
       style="opacity:1;fill:#787878;fill-opacity:1;fill-rule:nonzero;stroke:#ffffff;stroke-width:0.27996513;stroke-miterlimit:4;stroke-dasharray:none;stroke-opacity:1;paint-order:markers stroke fill"
       id="path4631"
       cx="11.488991"
       cy="17.029249"
       r="10.860018" /><path
       d="M 10.647775,13.895259 5.804026,12.506294 v 8.025134 l 4.843749,1.388966 z m -0.619999,4.876825 -3.3543751,-0.973714 0.071562,-0.531928 3.3540631,0.962269 z m 0,-1.395459 -3.3543751,-0.961886 0.071562,-0.543374 3.3540631,0.961885 z m 0,-1.395843 -3.3543751,-0.961503 0.071562,-0.543374 3.3540631,0.961885 z"
       id="path10677"
       inkscape:connector-curvature="0"
       sodipodi:nodetypes="cccccccccccccccccccc"
       style="fill:#ffffff;fill-opacity:1;stroke-width:0.34550855" /><path
       d="m 11.664725,22.00514 4.84375,-1.389348 v -8.025134 l -4.84375,1.388965 z m 3.898437,-7.444871 0.07156,0.543374 -3.353748,0.961886 -0.07156,-0.543375 z m 0,1.39546 0.07156,0.543374 -3.353748,0.961886 -0.07156,-0.543375 z"
       id="path10679"
       inkscape:connector-curvature="0"
       sodipodi:nodetypes="ccccccccccccccc"
       style="fill:#ffffff;fill-opacity:1;stroke-width:0.34550855" /></g><g
     display="none"
     id="g10587"
     style="display:none"
     transform="translate(-0.48899044,-6.0292488)"><rect
       x="-56"
       y="-105.005"
       display="inline"
       width="426"
       height="232.5"
       id="rect10585"
       style="display:inline;fill:#000000" /></g><g
     display="none"
     id="g10623"
     style="display:none"
     transform="translate(-0.48899044,-6.0292488)"><polygon
       display="inline"
       points="16,7.372 32,3.619 32,24.628 16,28.381 0,24.628 0,3.619 "
       id="polygon10589"
       style="display:inline;fill:#000000" /><g
       display="inline"
       id="g10611"
       style="display:inline"><g
         id="g10599"><line
           stroke-miterlimit="10"
           x1="18.905001"
           y1="22.739"
           x2="29.638"
           y2="20.221001"
           id="line10591"
           style="fill:#000000;stroke:#ffffff;stroke-miterlimit:10" /><line
           stroke-miterlimit="10"
           x1="18.905001"
           y1="19.086"
           x2="29.638"
           y2="16.568001"
           id="line10593"
           style="fill:#000000;stroke:#ffffff;stroke-miterlimit:10" /><line
           stroke-miterlimit="10"
           x1="18.905001"
           y1="15.432"
           x2="29.638"
           y2="12.914"
           id="line10595"
           style="fill:#000000;stroke:#ffffff;stroke-miterlimit:10" /><line
           stroke-miterlimit="10"
           x1="18.905001"
           y1="11.779"
           x2="29.638"
           y2="9.2609997"
           id="line10597"
           style="fill:#000000;stroke:#ffffff;stroke-miterlimit:10" /></g><g
         id="g10609"><line
           stroke-miterlimit="10"
           x1="13.095"
           y1="22.739"
           x2="2.362"
           y2="20.221001"
           id="line10601"
           style="fill:#000000;stroke:#ffffff;stroke-miterlimit:10" /><line
           stroke-miterlimit="10"
           x1="13.095"
           y1="19.086"
           x2="2.362"
           y2="16.568001"
           id="line10603"
           style="fill:#000000;stroke:#ffffff;stroke-miterlimit:10" /><line
           stroke-miterlimit="10"
           x1="13.095"
           y1="15.432"
           x2="2.362"
           y2="12.914"
           id="line10605"
           style="fill:#000000;stroke:#ffffff;stroke-miterlimit:10" /><line
           stroke-miterlimit="10"
           x1="13.095"
           y1="11.779"
           x2="2.362"
           y2="9.2609997"
           id="line10607"
           style="fill:#000000;stroke:#ffffff;stroke-miterlimit:10" /></g></g><g
       display="inline"
       id="g10621"
       style="display:inline"><defs
         id="defs10614"><polygon
           id="b"
           points="16,7.372 32,3.619 32,24.628 16,28.381 0,24.628 0,3.619 " /></defs><clipPath
         id="a"><use
           xlink:href="#b"
           overflow="visible"
           id="use10616"
           style="overflow:visible"
           x="0"
           y="0"
           width="100%"
           height="100%" /></clipPath><line
         clip-path="url(#a)"
         stroke-miterlimit="10"
         x1="16"
         y1="6.7080002"
         x2="16"
         y2="29.174999"
         id="line10619"
         style="fill:#000000;stroke:#ffffff;stroke-miterlimit:10" /></g></g><g
     display="none"
     id="g10649"
     style="display:none"
     transform="translate(-0.48899044,-6.0292488)"><circle
       display="inline"
       cx="16"
       cy="16"
       r="16"
       id="circle10625"
       style="display:inline;fill:#000000" /><g
       display="inline"
       id="g10647"
       style="display:inline"><path
         d="M 16,25.639 15.921,25.62 5,23.059 V 8.361 L 16,10.942 27,8.361 V 23.06 Z M 5.688,22.514 16,24.933 26.312,22.514 V 9.228 L 16,11.648 15.921,11.629 5.688,9.228 Z"
         id="path10627"
         inkscape:connector-curvature="0"
         style="fill:#000000" /><rect
         x="15.656"
         y="11.295"
         width="0.68800002"
         height="13.992"
         id="rect10629"
         style="fill:#000000" /><rect
         x="17.52"
         y="20.464001"
         transform="matrix(0.9735,-0.2287,0.2287,0.9735,-4.1942,5.4252)"
         width="7.579"
         height="0.68699998"
         id="rect10631"
         style="fill:#000000" /><rect
         x="17.52"
         y="17.952999"
         transform="matrix(0.9735,-0.2287,0.2287,0.9735,-3.6197,5.3587)"
         width="7.579"
         height="0.68699998"
         id="rect10633"
         style="fill:#000000" /><rect
         x="17.52"
         y="15.441"
         transform="matrix(0.9735,-0.2287,0.2287,0.9735,-3.0454,5.2921)"
         width="7.579"
         height="0.68699998"
         id="rect10635"
         style="fill:#000000" /><rect
         x="17.52"
         y="12.93"
         transform="matrix(0.9735,-0.2287,0.2287,0.9735,-2.4709,5.2255)"
         width="7.579"
         height="0.68699998"
         id="rect10637"
         style="fill:#000000" /><rect
         x="10.337"
         y="17.018"
         transform="matrix(0.2284,-0.9736,0.9736,0.2284,-12.0166,26.4529)"
         width="0.68699998"
         height="7.5799999"
         id="rect10639"
         style="fill:#000000" /><rect
         x="10.337"
         y="14.506"
         transform="matrix(0.2284,-0.9736,0.9736,0.2284,-9.5714,24.515)"
         width="0.68699998"
         height="7.5799999"
         id="rect10641"
         style="fill:#000000" /><rect
         x="10.337"
         y="11.995"
         transform="matrix(0.2284,-0.9736,0.9736,0.2284,-7.1259,22.5789)"
         width="0.68699998"
         height="7.579"
         id="rect10643"
         style="fill:#000000" /><rect
         x="10.337"
         y="9.4829998"
         transform="matrix(0.2284,-0.9736,0.9736,0.2284,-4.6806,20.6408)"
         width="0.68699998"
         height="7.579"
         id="rect10645"
         style="fill:#000000" /></g></g><g
     display="none"
     id="g10675"
     style="display:none"
     transform="translate(-0.48899044,-6.0292488)"><polygon
       display="inline"
       stroke-miterlimit="10"
       points="16,7.642 31.5,4.006 31.5,24.358 16,27.994 0.5,24.358 0.5,4.006 "
       id="polygon10651"
       style="display:inline;fill:none;stroke:#000000;stroke-miterlimit:10" /><line
       display="inline"
       stroke-miterlimit="10"
       x1="16"
       y1="7.6420002"
       x2="16"
       y2="27.993999"
       id="line10653"
       style="display:inline;fill:none;stroke:#000000;stroke-miterlimit:10" /><g
       display="inline"
       id="g10663"
       style="display:inline"><line
         stroke-miterlimit="10"
         x1="18.356001"
         y1="22.739"
         x2="29.089001"
         y2="20.221001"
         id="line10655"
         style="fill:none;stroke:#000000;stroke-miterlimit:10" /><line
         stroke-miterlimit="10"
         x1="18.356001"
         y1="19.086"
         x2="29.089001"
         y2="16.568001"
         id="line10657"
         style="fill:none;stroke:#000000;stroke-miterlimit:10" /><line
         stroke-miterlimit="10"
         x1="18.356001"
         y1="15.432"
         x2="29.089001"
         y2="12.914"
         id="line10659"
         style="fill:none;stroke:#000000;stroke-miterlimit:10" /><line
         stroke-miterlimit="10"
         x1="18.356001"
         y1="11.779"
         x2="29.089001"
         y2="9.2609997"
         id="line10661"
         style="fill:none;stroke:#000000;stroke-miterlimit:10" /></g><g
       display="inline"
       id="g10673"
       style="display:inline"><line
         stroke-miterlimit="10"
         x1="13.63"
         y1="22.739"
         x2="2.8959999"
         y2="20.221001"
         id="line10665"
         style="fill:none;stroke:#000000;stroke-miterlimit:10" /><line
         stroke-miterlimit="10"
         x1="13.63"
         y1="19.086"
         x2="2.8959999"
         y2="16.568001"
         id="line10667"
         style="fill:none;stroke:#000000;stroke-miterlimit:10" /><line
         stroke-miterlimit="10"
         x1="13.63"
         y1="15.432"
         x2="2.8959999"
         y2="12.914"
         id="line10669"
         style="fill:none;stroke:#000000;stroke-miterlimit:10" /><line
         stroke-miterlimit="10"
         x1="13.63"
         y1="11.779"
         x2="2.8959999"
         y2="9.2609997"
         id="line10671"
         style="fill:none;stroke:#000000;stroke-miterlimit:10" /></g></g></svg>