<?xml version="1.0" encoding="UTF-8" standalone="no"?>
<svg
   xmlns:dc="http://purl.org/dc/elements/1.1/"
   xmlns:cc="http://creativecommons.org/ns#"
   xmlns:rdf="http://www.w3.org/1999/02/22-rdf-syntax-ns#"
   xmlns:svg="http://www.w3.org/2000/svg"
   xmlns="http://www.w3.org/2000/svg"
   xmlns:sodipodi="http://sodipodi.sourceforge.net/DTD/sodipodi-0.dtd"
   xmlns:inkscape="http://www.inkscape.org/namespaces/inkscape"
   version="1.1"
   x="0px"
   y="0px"
   viewBox="0 0 14 14"
   xml:space="preserve"
   id="svg11264"
   sodipodi:docname="box.svg"
   width="14"
   height="14"
   inkscape:version="0.92.1 r15371"><metadata
     id="metadata11270"><rdf:RDF><cc:Work
         rdf:about=""><dc:format>image/svg+xml</dc:format><dc:type
           rdf:resource="http://purl.org/dc/dcmitype/StillImage" /><dc:title>Artboard 77</dc:title></cc:Work></rdf:RDF></metadata><defs
     id="defs11268" /><sodipodi:namedview
     pagecolor="#ffffff"
     bordercolor="#666666"
     borderopacity="1"
     objecttolerance="10"
     gridtolerance="10"
     guidetolerance="10"
     inkscape:pageopacity="0"
     inkscape:pageshadow="2"
     inkscape:window-width="1920"
     inkscape:window-height="1046"
     id="namedview11266"
     showgrid="false"
     inkscape:zoom="34.960773"
     inkscape:cx="20.556965"
     inkscape:cy="0.24748244"
     inkscape:window-x="1920"
     inkscape:window-y="0"
     inkscape:window-maximized="1"
     inkscape:current-layer="svg11264" /><title
     id="title11252">Artboard 77</title><path
     d="m 11.736425,9.786119 c -1.014069,-0.1481662 -1.9501303,0.592652 -2.1061426,1.555712 0,0.07406 0,0.148166 0,0.222228 v 1.185301 c 0,0.148165 0.1559913,0.296332 0.3120244,0.296332 v 0 h 3.1202082 c 0.156033,0 0.312025,-0.148167 0.312025,-0.296332 v 0 -1.111222 c 0,-0.963059 -0.702049,-1.7779522 -1.638115,-1.8520352 z"
     id="path11254"
     inkscape:connector-curvature="0"
     style="fill:#787878;fill-opacity:1;stroke-width:0.76018065" /><path
     d="m 11.573201,9.3158192 c -1.282868,0 -2.3054443,1.0261778 -2.3054443,2.2722508 0,1.246073 1.0225763,2.290576 2.3054443,2.290576 1.282869,0 2.305445,-1.026178 2.305445,-2.272251 v 0 c 0,-1.264398 -1.041169,-2.2905758 -2.305445,-2.2905758 z m 1.13413,3.5366488 c 0,0.03665 -0.03719,0.0733 -0.07437,0.0733 v 0 h -2.119523 c -0.03719,0 -0.07437,-0.03665 -0.07437,-0.0733 v 0 -1.612565 c 0,-0.03665 0.03719,-0.0733 0.07437,-0.0733 v 0 h 0.167331 c 0.03719,0 0.07437,-0.03665 0.07437,-0.0733 v 0 -0.293194 c 0,-0.439791 0.371846,-0.8062828 0.818061,-0.8062828 0.0186,0 0.05577,0 0.07437,0 0.427623,0.03665 0.743693,0.4031418 0.743693,0.8246078 v 0.256544 c 0,0.03665 0.03719,0.0733 0.07437,0.0733 v 0 h 0.167331 c 0.03719,0 0.07437,0.03665 0.07437,0.0733 v 0 z"
     id="path11256"
     inkscape:connector-curvature="0"
     style="fill:#787878;fill-opacity:1;stroke-width:0.18457967" /><path
     d="m 8.422311,12.240838 c -0.05577,-0.47644 0,-0.95288 0.167331,-1.410995 0.371846,-1.081152 1.264276,-1.905759 2.361222,-2.198953 0.464807,-0.128272 0.948207,-0.146597 1.413014,-0.0733 0.297477,0.05497 0.594953,-0.164922 0.632139,-0.458116 0,-0.03665 0,-0.05497 0,-0.09162 V 5.515707 L 11.24834,0.256545 C 11.192564,0.109948 11.062417,0 10.895087,0 H 2.119522 C 1.952192,0 1.822046,0.109948 1.766269,0.256545 L 0,5.515707 v 6.963351 c 0,0.20157 0.16733,0.366492 0.371846,0.366492 h 7.492696 c 0.316069,0 0.557769,-0.23822 0.557769,-0.549738 0,-0.01833 0,-0.03665 0,-0.05497 z M 1.115537,4.544503 2.34263,0.879581 C 2.36122,0.806281 2.43559,0.751309 2.528553,0.751309 h 7.957503 c 0.07437,0 0.148738,0.05497 0.167331,0.128272 l 1.227091,3.664922 c 0.03719,0.09162 -0.0186,0.20157 -0.111554,0.23822 -0.01859,0 -0.03719,0 -0.05577,0 H 1.282869 c -0.111554,0 -0.185923,-0.0733 -0.185923,-0.183247 0,-0.01832 0,-0.03665 0.01859,-0.05497 z m 2.602922,3.719895 v 0 c 0,-0.513089 0.409031,-0.91623 0.929616,-0.91623 h 3.718459 c 0.520584,0 0.929615,0.403141 0.929615,0.91623 v 0 c 0,0.513089 -0.409031,0.91623 -0.929615,0.91623 v 0 H 4.648075 c -0.520585,0 -0.929616,-0.403141 -0.929616,-0.91623 z"
     id="path11258"
     inkscape:connector-curvature="0"
     style="fill:#787878;fill-opacity:1;stroke-width:0.18457967" /><g
     id="g13068"
     transform="matrix(0.04286185,0,0,0.03844045,9.3350673,9.6167685)"
     style="fill:#ffffff;fill-opacity:1"><path
       style="fill:#ffffff;fill-opacity:1;stroke-width:1.00460732"
       inkscape:connector-curvature="0"
       id="path12504"
       d="M 22.948586,58.710888 19.023626,77.979678 38.470801,74.09072 73.038511,39.841093 57.516296,24.462261 Z M 73.795446,8.3304364 62.511059,19.511315 78.032264,34.890147 89.317661,23.709269 Z" /><path
       style="fill:#ffffff;fill-opacity:1;stroke-width:1.00460732"
       inkscape:connector-curvature="0"
       id="path12506"
       d="M 22.948586,58.710888 19.023626,77.979678 38.470801,74.09072 73.038511,39.841093 57.516296,24.462261 Z M 73.795446,8.3304364 62.511059,19.511315 78.032264,34.890147 89.317661,23.709269 Z" /><rect
       y="82.124298"
       x="18.773964"
       height="6.1421723"
       width="71.660721"
       id="rect13063"
       style="opacity:1;fill:#ffffff;fill-opacity:1;fill-rule:nonzero;stroke:#ffffff;stroke-width:0.38607386;stroke-miterlimit:4;stroke-dasharray:none;stroke-opacity:1;paint-order:markers stroke fill" /></g></svg>