<?xml version="1.0" encoding="UTF-8" standalone="no"?>
<svg
   xmlns:dc="http://purl.org/dc/elements/1.1/"
   xmlns:cc="http://creativecommons.org/ns#"
   xmlns:rdf="http://www.w3.org/1999/02/22-rdf-syntax-ns#"
   xmlns:svg="http://www.w3.org/2000/svg"
   xmlns="http://www.w3.org/2000/svg"
   xmlns:sodipodi="http://sodipodi.sourceforge.net/DTD/sodipodi-0.dtd"
   xmlns:inkscape="http://www.inkscape.org/namespaces/inkscape"
   height="16"
   viewBox="0 0 16 16"
   width="16"
   version="1.1"
   id="svg4539"
   sodipodi:docname="company.svg"
   inkscape:version="0.92.1 r15371"
   style="fill:#000000">
  <metadata
     id="metadata4545">
    <rdf:RDF>
      <cc:Work
         rdf:about="">
        <dc:format>image/svg+xml</dc:format>
        <dc:type
           rdf:resource="http://purl.org/dc/dcmitype/StillImage" />
        <dc:title />
      </cc:Work>
    </rdf:RDF>
  </metadata>
  <defs
     id="defs4543" />
  <sodipodi:namedview
     pagecolor="#ffffff"
     bordercolor="#666666"
     borderopacity="1"
     objecttolerance="10"
     gridtolerance="10"
     guidetolerance="10"
     inkscape:pageopacity="0"
     inkscape:pageshadow="2"
     inkscape:window-width="1920"
     inkscape:window-height="1019"
     id="namedview4541"
     showgrid="false"
     inkscape:zoom="34.083333"
     inkscape:cx="10.234718"
     inkscape:cy="5.4792176"
     inkscape:window-x="0"
     inkscape:window-y="27"
     inkscape:window-maximized="1"
     inkscape:current-layer="svg4539" />
  <path
     d="M -2,-5 H 22 V 19 H -2 Z M 8,0 h 4 V 2 H 8 Z m 0,0 h 4 V 2 H 8 Z"
     id="path4535"
     inkscape:connector-curvature="0"
     style="fill:none" />
  <path
     d="m 6.4,11.031785 v -0.8 H 0.808 l -0.008,3.2 c 0,0.888 0.712,1.6 1.6,1.6 h 11.2 c 0.888,0 1.6,-0.712 1.6,-1.6 v -3.2 H 9.6 v 0.8 z m 8,-7.2000002 h -3.208 v -1.6 l -1.6,-1.59999996 h -3.2 l -1.6,1.59999996 v 1.6 H 1.6 c -0.88,0 -1.6,0.72 -1.6,1.5999997 v 2.4000003 c 0,0.8880003 0.712,1.6 1.6,1.6 h 4.8 v -1.6 h 3.2 v 1.6 h 4.8 c 0.88,0 1.6,-0.7199998 1.6,-1.6 V 5.4317845 C 16,4.5517848 15.28,3.8317848 14.4,3.8317848 Z m -4.8,0 H 6.4 v -1.6 h 3.2 z"
     id="path4537"
     style="fill:#a6a6a6;fill-opacity:1;stroke-width:0.80000001"
     inkscape:connector-curvature="0" />
</svg>
