<?xml version="1.0" encoding="UTF-8" standalone="no"?>
<!-- Generator: Gravit.io -->

<svg
   xmlns:dc="http://purl.org/dc/elements/1.1/"
   xmlns:cc="http://creativecommons.org/ns#"
   xmlns:rdf="http://www.w3.org/1999/02/22-rdf-syntax-ns#"
   xmlns:svg="http://www.w3.org/2000/svg"
   xmlns="http://www.w3.org/2000/svg"
   xmlns:sodipodi="http://sodipodi.sourceforge.net/DTD/sodipodi-0.dtd"
   xmlns:inkscape="http://www.inkscape.org/namespaces/inkscape"
   style="isolation:isolate"
   viewBox="0 0 17 15"
   width="17"
   height="15"
   version="1.1"
   id="svg5224"
   sodipodi:docname="DescDocuments.svg"
   inkscape:version="0.92.1 r15371">
  <metadata
     id="metadata5228">
    <rdf:RDF>
      <cc:Work
         rdf:about="">
        <dc:format>image/svg+xml</dc:format>
        <dc:type
           rdf:resource="http://purl.org/dc/dcmitype/StillImage" />
      </cc:Work>
    </rdf:RDF>
  </metadata>
  <sodipodi:namedview
     pagecolor="#ffffff"
     bordercolor="#666666"
     borderopacity="1"
     objecttolerance="10"
     gridtolerance="10"
     guidetolerance="10"
     inkscape:pageopacity="0"
     inkscape:pageshadow="2"
     inkscape:window-width="1920"
     inkscape:window-height="1019"
     id="namedview5226"
     showgrid="false"
     inkscape:zoom="16.094401"
     inkscape:cx="6.4949171"
     inkscape:cy="8.3850616"
     inkscape:window-x="0"
     inkscape:window-y="27"
     inkscape:window-maximized="1"
     inkscape:current-layer="svg5224" />
  <defs
     id="defs5215">
    <clipPath
       id="_clipPath_WeJYgJtya68mKka7cdEOOuyXdr0a0DRX">
      <rect
         width="24"
         height="24"
         id="rect5212"
         x="0"
         y="0" />
    </clipPath>
  </defs>
  <g
     clip-path="url(#_clipPath_WeJYgJtya68mKka7cdEOOuyXdr0a0DRX)"
     id="g5222"
     style="fill:#787878;fill-opacity:1"
     transform="matrix(0.85,0,0,0.88235294,-1.7,-4.4117647)">
    <g
       id="g5220"
       style="fill:#787878;fill-opacity:1">
      <g
         id="Group"
         style="fill:#787878;fill-opacity:1">
        <path
           d="m 9.53,5 h 5 z M 4,7 V 20 H 20 V 7 Z M 17,5 v 0 h 3 c 1.105,0 2,0.895 2,2 v 13 c 0,1.105 -0.895,2 -2,2 H 4 C 2.895,22 2,21.105 2,20 V 7 C 2,5.895 2.895,5 4,5 H 7 V 5 Z M 7,18 v -4 h 5 v 4 z m 7,-1 v -7 h 4 v 7 z M 6,12 V 9 h 5 v 3 z"
           id="path5217"
           style="fill:#787878;fill-opacity:1"
           inkscape:connector-curvature="0" />
      </g>
    </g>
  </g>
</svg>
