<?xml version="1.0" encoding="UTF-8" standalone="no"?>
<svg
   xmlns:dc="http://purl.org/dc/elements/1.1/"
   xmlns:cc="http://creativecommons.org/ns#"
   xmlns:rdf="http://www.w3.org/1999/02/22-rdf-syntax-ns#"
   xmlns:svg="http://www.w3.org/2000/svg"
   xmlns:sodipodi="http://sodipodi.sourceforge.net/DTD/sodipodi-0.dtd"
   xmlns:inkscape="http://www.inkscape.org/namespaces/inkscape"
   xmlns="http://www.w3.org/2000/svg"
   version="1.1"
   x="0px"
   y="0px"
   viewBox="0 0 24.888889 32"
   enable-background="new 0 0 100 100"
   xml:space="preserve"
   id="svg8182"
   sodipodi:docname="document.svg"
   inkscape:version="0.92.1 r15371"
   width="24.888889"
   height="32"><metadata
     id="metadata8188"><rdf:RDF><cc:Work
         rdf:about=""><dc:format>image/svg+xml</dc:format><dc:type
           rdf:resource="http://purl.org/dc/dcmitype/StillImage" /></cc:Work></rdf:RDF></metadata><defs
     id="defs8186" /><sodipodi:namedview
     pagecolor="#ffffff"
     bordercolor="#666666"
     borderopacity="1"
     objecttolerance="10"
     gridtolerance="10"
     guidetolerance="10"
     inkscape:pageopacity="0"
     inkscape:pageshadow="2"
     inkscape:window-width="1920"
     inkscape:window-height="1019"
     id="namedview8184"
     showgrid="false"
     inkscape:zoom="4.72"
     inkscape:cx="29.380357"
     inkscape:cy="39.562269"
     inkscape:window-x="0"
     inkscape:window-y="27"
     inkscape:window-maximized="1"
     inkscape:current-layer="g8178" /><g
     id="g8180"
     transform="translate(-15,-63)"><g
       id="g8178"><path
         d="m 19.444444,82.555556 h 8.888889 c 0.491023,0 0.888889,-0.397867 0.888889,-0.888889 0,-0.491023 -0.397866,-0.888889 -0.888889,-0.888889 h -8.888889 c -0.491022,0 -0.888888,0.397866 -0.888888,0.888889 0,0.491022 0.397866,0.888889 0.888888,0.888889 z"
         id="path8166"
         style="fill:#ffffff;fill-opacity:1;stroke-width:0.35555556"
         inkscape:connector-curvature="0" /><path
         d="m 35.444444,86.466667 h -16 c -0.491022,0 -0.888888,0.397866 -0.888888,0.888889 0,0.491022 0.397866,0.888888 0.888888,0.888888 h 16 c 0.491023,0 0.888889,-0.397866 0.888889,-0.888888 0,-0.491023 -0.397866,-0.888889 -0.888889,-0.888889 z"
         id="path8168"
         style="fill:#ffffff;fill-opacity:1;stroke-width:0.35555556"
         inkscape:connector-curvature="0" /><path
         d="m 35.444444,77.577778 h -16 c -0.491022,0 -0.888888,0.397866 -0.888888,0.888889 0,0.491022 0.397866,0.888889 0.888888,0.888889 h 16 c 0.491023,0 0.888889,-0.397867 0.888889,-0.888889 0,-0.491023 -0.397866,-0.888889 -0.888889,-0.888889 z"
         id="path8170"
         style="fill:#ffffff;fill-opacity:1;stroke-width:0.35555556"
         inkscape:connector-curvature="0" /><path
         d="m 35.444444,74.377778 h -16 c -0.491022,0 -0.888888,0.397866 -0.888888,0.888889 0,0.491022 0.397866,0.888889 0.888888,0.888889 h 16 c 0.491023,0 0.888889,-0.397867 0.888889,-0.888889 0,-0.491023 -0.397866,-0.888889 -0.888889,-0.888889 z"
         id="path8172"
         style="fill:#ffffff;fill-opacity:1;stroke-width:0.35555556"
         inkscape:connector-curvature="0" /><path
         d="m 39.836978,70.822222 h -3.8592 c -1.764622,0 -3.2,-1.435733 -3.2,-3.2 V 63 H 18.555556 C 16.591822,63 15,64.591822 15,66.555556 V 91.444444 C 15,93.407822 16.591822,95 18.555556,95 h 17.777777 c 1.963378,0 3.555556,-1.592178 3.555556,-3.555556 V 71.888889 c 0,-0.370133 -0.01991,-0.723911 -0.05191,-1.066667 z M 31.888889,91.444444 H 19.444444 c -0.491022,0 -0.888888,-0.397866 -0.888888,-0.888888 0,-0.491023 0.397866,-0.888889 0.888888,-0.888889 h 12.444445 c 0.491022,0 0.888889,0.397866 0.888889,0.888889 0,0.491022 -0.397867,0.888888 -0.888889,0.888888 z m 3.555555,-3.2 h -16 c -0.491022,0 -0.888888,-0.397866 -0.888888,-0.888888 0,-0.491023 0.397866,-0.888889 0.888888,-0.888889 h 16 c 0.491023,0 0.888889,0.397866 0.888889,0.888889 0,0.491022 -0.397866,0.888888 -0.888889,0.888888 z M 18.555556,81.666667 c 0,-0.491023 0.397866,-0.888889 0.888888,-0.888889 h 8.888889 c 0.491023,0 0.888889,0.397866 0.888889,0.888889 0,0.491022 -0.397866,0.888889 -0.888889,0.888889 h -8.888889 c -0.491022,0 -0.888888,-0.397867 -0.888888,-0.888889 z m 16.888888,-2.311111 h -16 c -0.491022,0 -0.888888,-0.397867 -0.888888,-0.888889 0,-0.491023 0.397866,-0.888889 0.888888,-0.888889 h 16 c 0.491023,0 0.888889,0.397866 0.888889,0.888889 0,0.491022 -0.397866,0.888889 -0.888889,0.888889 z m 0,-3.2 h -16 c -0.491022,0 -0.888888,-0.397867 -0.888888,-0.888889 0,-0.491023 0.397866,-0.888889 0.888888,-0.888889 h 16 c 0.491023,0 0.888889,0.397866 0.888889,0.888889 0,0.491022 -0.397866,0.888889 -0.888889,0.888889 z"
         id="path8174"
         style="fill:#787878;fill-opacity:1;stroke-width:0.35555556"
         inkscape:connector-curvature="0" /><path
         d="m 35.977778,69.4 h 3.624889 C 38.453867,64.6032 34.208889,63.0032 34.200356,63 H 34.2 v 4.622222 C 34.2,68.603911 34.995733,69.4 35.977778,69.4 Z"
         id="path8176"
         style="fill:#787878;fill-opacity:1;stroke-width:0.35555556"
         inkscape:connector-curvature="0" /></g></g></svg>