<?xml version="1.0" encoding="utf-8"?><!DOCTYPE svg PUBLIC "-//W3C//DTD SVG 1.1//EN"
  "http://www.w3.org/Graphics/SVG/1.1/DTD/svg11.dtd">
<svg version="1.1" xmlns:inkscape="http://www.inkscape.org/namespaces/inkscape" xmlns:cc="http://creativecommons.org/ns#" xmlns:dc="http://purl.org/dc/elements/1.1/" xmlns:sodipodi="http://sodipodi.sourceforge.net/DTD/sodipodi-0.dtd" xmlns:svg="http://www.w3.org/2000/svg" xmlns:rdf="http://www.w3.org/1999/02/22-rdf-syntax-ns#" xmlns="http://www.w3.org/2000/svg" xmlns:xlink="http://www.w3.org/1999/xlink" x="0px" y="0px" viewBox="0 0 100 100" enable-background="new 0 0 100 100" xml:space="preserve"><path opacity="0.99" enable-background="new    " d="M50.04,0
	C36.381,0,23.931,5.461,14.844,14.42C5.758,23.379,0,35.981,0,50c0,14.02,5.758,26.621,14.844,35.58S36.381,100,50.04,100
	s26.029-5.461,35.116-14.42C94.242,76.621,100,64.02,100,50c0-14.019-5.758-26.621-14.844-35.58C76.069,5.461,63.699,0,50.04,0z
	 M50.04,6.035c12.645,0,24.011,5.129,32.163,13.166C90.354,27.238,95.211,38.083,95.211,50s-4.857,22.762-13.008,30.799
	c-8.152,8.038-19.519,13.167-32.163,13.167c-12.645,0-24.091-5.129-32.243-13.167C9.646,72.762,4.789,61.917,4.789,50
	s4.857-22.762,13.009-30.799C25.949,11.164,37.395,6.035,50.04,6.035L50.04,6.035z M63.049,18.26l3.192,5.564l-5.667,6.348
	l-3.271,1.097l-3.831-1.411l-5.427,2.508l-0.718,3.057l1.437,2.821l2.553-4.859l1.038,3.135L49.8,39.028l-6.065,0.627l-1.437,1.489
	l1.437,1.724l-3.192,1.332l2.155,3.057l2.474-1.411l2.155-2.273l3.752,1.881l1.276,0.549l1.356,2.272l0.719,0.862l-7.343-0.706
	c0,0-5.848-0.212-6.385,0.314l-3.033,5.33l0.718,5.25l6.065,1.803l3.592,2.43v7.053l1.037,4.938h3.592l3.592-2.115l2.474-6.035
	l-0.319-4.232l3.192-4.545l2.873-5.25l3.272-1.02l1.756,6.27l4.629-4.154l0.718,7.994l3.911,3.213l2.952-0.705l-3.671-4.231
	l0.719-3.841l2.154,0.393l-1.756-3.918l3.192-2.117l1.756-6.348l1.517-5.643l-1.836-3.84l0.719-1.333l2.474,7.68l0.718-10.501
	l-5.746-4.937h-9.258L63.049,18.26L63.049,18.26z M37.351,21.003l-5.347,2.822l2.075,9.875l1.437,0.392l2.474-4.545l3.272-2.821
	l-1.117-4.232L37.351,21.003L37.351,21.003z M19.074,27.038l-3.911,3.84v2.116l-1.756,4.231l-1.117,10.188l2.873,5.643l6.784,7.68
	l-0.399,6.035l1.516,3.84v9.091l4.23,2.116l-0.718-3.213l3.911-2.116l6.464-7.367l-6.784-8.386l-7.901-3.135l-5.746-5.25
	l1.516-2.508l5.028-0.313l1.357-5.956l6.784-4.232l-6.385-6.348l-2.554,1.411L19.074,27.038L19.074,27.038z"></path></svg>