<?xml version="1.0" encoding="utf-8"?>
<!-- Generator: Adobe Illustrator 21.1.0, SVG Export Plug-In . SVG Version: 6.00 Build 0)  -->
<svg version="1.1" id="Слой_1" xmlns="http://www.w3.org/2000/svg" xmlns:xlink="http://www.w3.org/1999/xlink" x="0px" y="0px"
	 viewBox="0 0 16 16" style="enable-background:new 0 0 16 16;" xml:space="preserve">
<style type="text/css">
	.st0{fill:#D5D5D5;}
</style>
<path class="st0" d="M15.8,10l-1.3-1.2c0.1-0.3,0.1-0.6,0.1-0.9c0-0.3,0-0.6-0.1-0.9L15.8,6c0.2-0.3,0.3-0.5,0.1-0.7l-1.5-2.7
	c-0.2-0.3-0.4-0.4-0.7-0.3L12,3c-0.2-0.2-0.4-0.4-0.7-0.5C11,2.3,10.7,2.2,10.4,2L10,0.4C10,0.2,9.8,0,9.5,0h-3
	C6.2,0,5.9,0.2,5.9,0.4L5.6,2.1C5.3,2.2,5,2.4,4.7,2.5C4.4,2.7,4.2,2.8,3.9,3L2.3,2.5C2,2.4,1.8,2.5,1.6,2.7L0.1,5.3
	C-0.1,5.5,0,5.8,0.2,6l1.3,1.2c0,0.3,0,0.6,0,0.9c0,0.3,0,0.6,0.1,0.9L0.3,10c-0.3,0.3-0.4,0.5-0.2,0.7l1.5,2.7
	c0.2,0.3,0.4,0.4,0.7,0.3L4,13c0.2,0.2,0.4,0.4,0.7,0.5C5,13.7,5.2,13.8,5.6,14l0.4,1.7c0,0.2,0.3,0.4,0.5,0.4h2.6h0.4
	c0.3,0,0.5-0.2,0.5-0.4l0.4-1.7c0.3-0.1,0.6-0.3,0.9-0.4c0.3-0.2,0.5-0.4,0.8-0.5l1.7,0.6c0.3,0.1,0.5,0,0.7-0.3l1.5-2.6
	C16.1,10.5,16,10.2,15.8,10z M10.6,8c0,1.4-1.2,2.6-2.7,2.6c-1.5,0-2.7-1.2-2.7-2.6S6.6,5.4,8,5.4C9.5,5.4,10.6,6.6,10.6,8z"/>
</svg>
