<?xml version="1.0" encoding="UTF-8" standalone="no"?>
<svg
   xmlns:dc="http://purl.org/dc/elements/1.1/"
   xmlns:cc="http://creativecommons.org/ns#"
   xmlns:rdf="http://www.w3.org/1999/02/22-rdf-syntax-ns#"
   xmlns:svg="http://www.w3.org/2000/svg"
   xmlns="http://www.w3.org/2000/svg"
   xmlns:sodipodi="http://sodipodi.sourceforge.net/DTD/sodipodi-0.dtd"
   xmlns:inkscape="http://www.inkscape.org/namespaces/inkscape"
   height="16"
   viewBox="0 0 16 16"
   width="16"
   version="1.1"
   id="svg4539"
   sodipodi:docname="help.svg"
   style="fill:#000000"
   inkscape:version="0.92.1 r15371">
  <metadata
     id="metadata4545">
    <rdf:RDF>
      <cc:Work
         rdf:about="">
        <dc:format>image/svg+xml</dc:format>
        <dc:type
           rdf:resource="http://purl.org/dc/dcmitype/StillImage" />
      </cc:Work>
    </rdf:RDF>
  </metadata>
  <defs
     id="defs4543" />
  <sodipodi:namedview
     pagecolor="#ffffff"
     bordercolor="#666666"
     borderopacity="1"
     objecttolerance="10"
     gridtolerance="10"
     guidetolerance="10"
     inkscape:pageopacity="0"
     inkscape:pageshadow="2"
     inkscape:window-width="1920"
     inkscape:window-height="1019"
     id="namedview4541"
     showgrid="false"
     inkscape:zoom="12.050278"
     inkscape:cx="15.22901"
     inkscape:cy="3.5361299"
     inkscape:window-x="0"
     inkscape:window-y="27"
     inkscape:window-maximized="1"
     inkscape:current-layer="svg4539" />
  <path
     d="M 0.15762654,-8.074641 H 24.157627 v 24 H 0.15762654 Z"
     id="path4535"
     inkscape:connector-curvature="0"
     style="fill:none" />
  <path
     d="M 7.1999997,12.8 H 8.8000004 V 11.2 H 7.1999997 Z M 8.0000004,0 C 3.584,0 0,3.584 0,8 c 0,4.416001 3.584,8 8.0000004,8 4.4160006,0 8.0000006,-3.583999 8.0000006,-8 0,-4.416 -3.584,-8 -8.0000006,-8 z m 0,14.4 C 4.4720007,14.4 1.6,11.528 1.6,8 1.6,4.472 4.4720007,1.6 8.0000004,1.6 c 3.5280006,0 6.4000006,2.872 6.4000006,6.4 0,3.528 -2.872,6.4 -6.4000006,6.4 z m 0,-11.2 C 6.2320007,3.2 4.8000007,4.632 4.8000007,6.4 h 1.6 c 0,-0.88 0.7199997,-1.6 1.5999997,-1.6 0.88,0 1.6,0.72 1.6,1.6 0,1.6 -2.4000007,1.400001 -2.4000007,4.000001 H 8.8000004 C 8.8000004,8.6 11.200001,8.4 11.200001,6.4 c 0,-1.768 -1.4320006,-3.2 -3.2000006,-3.2 z"
     id="path4537"
     inkscape:connector-curvature="0"
     style="fill:#d5d5d5;fill-opacity:1;stroke-width:0.80000001" />
</svg>
