<?xml version="1.0" encoding="UTF-8" standalone="no"?>
<svg
   xmlns:dc="http://purl.org/dc/elements/1.1/"
   xmlns:cc="http://creativecommons.org/ns#"
   xmlns:rdf="http://www.w3.org/1999/02/22-rdf-syntax-ns#"
   xmlns:svg="http://www.w3.org/2000/svg"
   xmlns="http://www.w3.org/2000/svg"
   xmlns:sodipodi="http://sodipodi.sourceforge.net/DTD/sodipodi-0.dtd"
   xmlns:inkscape="http://www.inkscape.org/namespaces/inkscape"
   version="1.1"
   x="0px"
   y="0px"
   viewBox="0 0 15 14"
   xml:space="preserve"
   id="svg4822"
   sodipodi:docname="inbox.svg"
   width="15"
   height="14"
   inkscape:version="0.92.1 r15371"><metadata
     id="metadata4828"><rdf:RDF><cc:Work
         rdf:about=""><dc:format>image/svg+xml</dc:format><dc:type
           rdf:resource="http://purl.org/dc/dcmitype/StillImage" /></cc:Work></rdf:RDF></metadata><defs
     id="defs4826" /><sodipodi:namedview
     pagecolor="#ffffff"
     bordercolor="#666666"
     borderopacity="1"
     objecttolerance="10"
     gridtolerance="10"
     guidetolerance="10"
     inkscape:pageopacity="0"
     inkscape:pageshadow="2"
     inkscape:window-width="1920"
     inkscape:window-height="1019"
     id="namedview4824"
     showgrid="false"
     inkscape:zoom="21.228489"
     inkscape:cx="4.5083515"
     inkscape:cy="5.1094821"
     inkscape:window-x="0"
     inkscape:window-y="27"
     inkscape:window-maximized="1"
     inkscape:current-layer="g4816" /><g
     id="g4816"
     transform="scale(0.5,0.48088483)"><path
       d="M 29.945,13.664 26.909,4.775 C 26.774,4.38 26.403,4.115 25.986,4.115 l -6.947,0.006 c 0.46,0.158 0.859,0.471 1.102,0.908 0.184,0.329 0.262,0.696 0.245,1.06 l 4.842,-0.007 2.758,8.031 H 22 c -1.104,0 -2,0.896 -2,2 v 1 H 10 v -1 c 0,-1.104 -0.896,-2 -2,-2 H 2.013 L 4.656,6.112 10.01,6.104 C 9.99,5.736 10.066,5.364 10.251,5.032 10.491,4.597 10.885,4.288 11.34,4.127 L 4.008,4.133 c -0.417,0 -0.788,0.266 -0.923,0.66 L 0.051,13.676 C 0.017,13.777 0,13.883 0,13.989 v 13.124 c 0,1.104 0.896,2 2,2 h 26 c 1.104,0 2,-0.896 2,-2 V 13.989 c 0,-0.11 -0.019,-0.219 -0.055,-0.325 z"
       id="path4812"
       inkscape:connector-curvature="0"
       style="fill:#787878;fill-opacity:1" /><path
       d="m 11.126,5.516 c -0.177,0.317 -0.166,0.706 0.026,1.015 l 3.196,5.113 c 0.183,0.292 0.503,0.47 0.848,0.47 0.345,0 0.665,-0.178 0.848,-0.47 L 19.24,6.53 C 19.432,6.221 19.443,5.833 19.266,5.515 19.091,5.197 18.756,5 18.392,5 H 17.197 V 1 c 0,-0.553 -0.447,-1 -1,-1 h -2 c -0.553,0 -1,0.447 -1,1 v 4 h -1.195 c -0.365,0 -0.7,0.197 -0.876,0.516 z"
       id="path4814"
       inkscape:connector-curvature="0"
       style="fill:#787878;fill-opacity:1" /></g></svg>