<?xml version="1.0" encoding="utf-8"?>
<!-- Generator: Adobe Illustrator 21.1.0, SVG Export Plug-In . SVG Version: 6.00 Build 0)  -->
<svg version="1.1" id="Слой_1" xmlns="http://www.w3.org/2000/svg" xmlns:xlink="http://www.w3.org/1999/xlink" x="0px" y="0px"
	 viewBox="0 0 13 13" style="enable-background:new 0 0 13 13;" xml:space="preserve">
<style type="text/css">
	.st0{fill:#0089E9;}
	.st1{fill:#FFFFFF;}
</style>
<g id="Слой_1_1_">
	<circle class="st0" cx="6.5" cy="6.5" r="6.5"/>
</g>
<g id="Слой_2">
	<path class="st1" d="M10.1,5.7L9.5,8.1C9.3,8.5,9,8.7,8.6,8.7H5.1V5.1l0,0c0.6,0,1.2-0.4,1.3-1l0.2-0.8C6.7,3,6.9,2.8,7.2,2.8
		S7.8,3,7.8,3.4V5c0,0.1,0.1,0.1,0.1,0.1h1.8C9.9,5.1,10.2,5.4,10.1,5.7z M4.8,4.8H3c-0.1,0-0.1,0.1-0.1,0.1v3.9C2.9,8.9,2.9,9,3,9
		h1.8c0.1,0,0.1-0.1,0.1-0.1L4.8,4.8C5,4.9,4.9,4.8,4.8,4.8z"/>
</g>
</svg>
