<?xml version="1.0" encoding="utf-8"?>
<!-- Generator: Adobe Illustrator 21.1.0, SVG Export Plug-In . SVG Version: 6.00 Build 0)  -->
<svg version="1.1" id="Слой_1" xmlns="http://www.w3.org/2000/svg" xmlns:xlink="http://www.w3.org/1999/xlink" x="0px" y="0px"
	 viewBox="0 0 13 13" style="enable-background:new 0 0 13 13;" xml:space="preserve">
<style type="text/css">
	.st0{fill:#0089E9;}
</style>
<path class="st0" d="M12,6.8l-1.1,4c-0.2,0.7-0.8,1.1-1.5,1.1H3.7v-6l0,0c1,0,1.9-0.7,2.2-1.7l0.3-1.4C6.3,2.3,6.7,2,7.2,2
	s1,0.4,1,1v2.7c0,0.1,0.1,0.2,0.2,0.2h2.9C11.7,5.9,12.1,6.3,12,6.8z M3.2,5.4h-3C0.1,5.4,0,5.5,0,5.6v6.5c0,0.1,0.1,0.2,0.2,0.2h3
	c0.1,0,0.2-0.1,0.2-0.2V5.6C3.5,5.5,3.3,5.4,3.2,5.4z"/>
</svg>
