<?xml version="1.0" encoding="utf-8"?>
<!-- Generator: Adobe Illustrator 21.1.0, SVG Export Plug-In . SVG Version: 6.00 Build 0)  -->
<svg version="1.1" id="Слой_1" xmlns="http://www.w3.org/2000/svg" xmlns:xlink="http://www.w3.org/1999/xlink" x="0px" y="0px"
	 viewBox="0 0 13 13" style="enable-background:new 0 0 13 13;" xml:space="preserve">
<style type="text/css">
	.st0{fill:#0089E9;}
</style>
<path class="st0" d="M12,6.5l-1.1,4.6c-0.2,0.8-0.8,1.3-1.5,1.3H3.7v-7h0c1,0,1.9-0.8,2.2-2l0.3-1.6C6.3,1.3,6.7,1,7.2,1
	c0.5,0,1,0.5,1,1.1v3.1c0,0.1,0.1,0.3,0.2,0.3h2.9C11.7,5.5,12.1,6,12,6.5z M3.2,4.9h-3C0.1,4.9,0,5,0,5.2v7.5C0,12.9,0.1,13,0.2,13
	h3c0.1,0,0.2-0.1,0.2-0.3V5.2C3.5,5,3.3,4.9,3.2,4.9z"/>
</svg>
