<?xml version="1.0" encoding="utf-8"?>
<!-- Generator: Adobe Illustrator 20.1.0, SVG Export Plug-In . SVG Version: 6.00 Build 0)  -->
<svg xmlns:xlink="http://www.w3.org/1999/xlink" version="1.1" id="Слой_1" xmlns="http://www.w3.org/2000/svg" x="0px" y="0px"
	 viewBox="0 0 900 700" style="enable-background:new 0 0 900 700;" xml:space="preserve">
<style type="text/css">
	.st0{fill:#ACB3BD;}
</style>
<g>
	<g>
		<path class="st0" d="M605.7,49.4c52.8,48.3,105.3,96.4,158.1,144.7c0.5,0.4,0.5,1.1,0.1,1.6c-0.3,0.4-0.7,0.8-1.1,1.2
			c-33.6,30.9-67.3,61.5-100.8,92.3c-32,29.3-64.1,58.6-96.1,87.9c-53,48.5-106,96.9-159.1,145.4c-32.2,29.5-64.3,58.8-96.3,88.2
			c-1.8,1.7-4,2.6-6.8,2.8c-3,0.2-6,1-9.2,1.6c-4.2,0.6-8.2,1.6-12.6,2.2c-3.3,0.6-6.6,1.6-9.7,2.2c-2.6,0.6-5.1,1-7.7,1.6
			c-3.3,0.6-6.8,0.8-10.1,1.4c-3.3,0.6-6.6,1.4-9.9,1.9c-6,1-12.2,2-18.1,3.1c-3.3,0.6-6.6,1.2-9.9,1.9c-4,0.6-7.9,1.4-11.7,2
			c-3.3,0.6-6.9,1.6-10.3,2.2c-2.8,0.6-5.8,1.2-8.6,1.6c-5.8,0.8-11.7,1.7-17.4,2.8c-2.4,0.4-4.9,1-8,1.9c1.3,0.4,2,0.6,2.8,0.6
			c1.3,0,2.6,0,4.2,0c88.4,0,271.2,0.6,271.5,1c1.3,1.7,3.1,2.6,5.5,2.8c4.9,0.6,8.6,2.4,10.5,7c1.1,2.6,3,4.8,2.6,7.9
			c0,0.6,0.4,1.4,0.6,1.4c2.8,0.6,2,2.6,2,4.3c0,5.7,0,11.3,0,16.8c0,1.6,0.6,3.4-2,4c-0.4,0-0.7,1.2-0.7,1.7
			c0.4,4.4-2.6,7.7-4.7,11.1c-1.1,1.7-4.4,2.9-6.8,3.4c-4.7,1-9.5,1.6-14.4,1.6c-96.3-0.2-192.8,0-289.1,0c-4.2,0-8.2,0.6-12.2-1.4
			c-3.5-1.7-8-1.4-11.5-3.8c-0.2-0.2-0.6-0.3-1-0.4c-0.3-0.1-0.6-0.3-0.7-0.6c-1.4-3.5-4.7-6.3-4.3-10.4c0.2-1.2,0-2.2-1.7-2.9
			c-0.6-0.2-0.9-1.9-0.9-2.8c-0.2-4.4,0-9.1,0-13.5c0-7.3,0-14.7,0-22.2c0-5.7,0.6-10.9,2.6-16.3c0.9-2.6,0.9-5.7,1.7-8.4
			c0.7-3.6,1.7-7,2.4-10.7c0.6-2.4,1.1-4.8,1.5-7.2c0.6-3.2,0.9-6.3,1.7-9.6c0.6-3.1,1.7-6,2.4-8.9c0.6-2.4,1.1-4.8,1.5-7.2
			c0.6-3.1,0.9-6.2,1.5-9.3c0.6-2.8,1.1-5.5,1.7-8.2c1.3-6,2.4-11.9,3.8-17.8c0.6-2.8,1.3-5.5,1.8-8.2c0.7-3.8,1.5-7.7,2.4-11.5
			c0.7-3.1,1.7-6,2.4-9.1c0.6-2.6,1.3-5.3,1.7-7.9c0.9-5.3,1.8-10.7,3-15.9c1.1-5.3,2.6-10.5,4-15.8c0.2-0.4,0.2-0.8,0-1.2
			c0-3.6,1.5-6.5,4.4-9.1c32.9-29.9,65.8-60,98.7-90.1c38.8-35.5,77.6-70.9,116.4-106.4c37.8-34.6,75.9-69.4,114-104
			c40.2-36.8,80.6-73.6,120.6-110.4c0,0,0.1-0.1,0.1-0.1c1-0.7,2.1-1.6,3.2-2.5C604.3,48.9,605.1,48.9,605.7,49.4z"/>
	</g>
</g>
<polyline class="st0" points="764.2,700 437.1,700 438.8,641.3 764.2,641.3 "/>
</svg>
