<?xml version="1.0" encoding="utf-8"?>
<!-- Generator: Adobe Illustrator 20.1.0, SVG Export Plug-In . SVG Version: 6.00 Build 0)  -->
<svg version="1.1" id="Слой_1" xmlns="http://www.w3.org/2000/svg" xmlns:xlink="http://www.w3.org/1999/xlink" x="0px" y="0px"
	 viewBox="0 0 900 700" style="enable-background:new 0 0 900 700;" xml:space="preserve">
<style type="text/css">
	.st0{fill:#8F8F8F;stroke:#000000;stroke-miterlimit:10;}
	.st1{fill:#FFFFFF;}
	.st2{fill:#8F8F8F;}
</style>
<polygon class="st0" points="174,0.5 180,700.5 726,700.5 719,0.5 "/>
<g>
	<g>
		<path class="st1" d="M288.3,244.3c1.7-5,4.8-7.5,9.2-7.6c2.9-0.1,5.7-0.5,8.6-0.5c33.4,0,66.8,0.1,100.1-0.2
			c3.2,0,6.8-1.3,9.5-3.4c37.5-30,74.9-60.2,112.4-90.3c1.9-1.5,3.8-2.9,6.2-4.7c0,132.3,0,263.7,0,396.4c-2.2-1.7-4-3-5.8-4.4
			c-37.6-30.3-75.1-60.6-112.8-90.7c-2.6-2.1-6.2-3.5-9.4-3.5c-34.3-0.2-68.7-0.1-103-0.2c-5.7,0-11.5,0.2-15-6.9
			C288.3,367,288.3,305.7,288.3,244.3z"/>
		<path class="st1" d="M611.1,503.1c-13.2-13.2-26-26.1-39.3-39.5c26.6-36.8,39.9-79.5,39.9-127.8c0-48.1-13.1-90.7-39.9-127.8
			c13.1-13.2,26-26.2,38.9-39.2C674.2,251.2,685.6,400,611.1,503.1z"/>
	</g>
</g>
<rect x="-1" class="st2" width="108" height="700"/>
<polygon class="st0" points="801.1,0.5 816.1,700.5 726,700.5 719,0.5 "/>
<polygon class="st2" points="814,701 814,0 717,0.5 724,700.5 "/>
</svg>
