<?xml version="1.0" encoding="UTF-8" standalone="no"?>
<svg
   xmlns:dc="http://purl.org/dc/elements/1.1/"
   xmlns:cc="http://creativecommons.org/ns#"
   xmlns:rdf="http://www.w3.org/1999/02/22-rdf-syntax-ns#"
   xmlns:svg="http://www.w3.org/2000/svg"
   xmlns:sodipodi="http://sodipodi.sourceforge.net/DTD/sodipodi-0.dtd"
   xmlns:inkscape="http://www.inkscape.org/namespaces/inkscape"
   xmlns="http://www.w3.org/2000/svg"
   version="1.1"
   x="0px"
   y="0px"
   viewBox="0 0 35 27.000001"
   xml:space="preserve"
   id="svg4629"
   sodipodi:docname="messages.svg"
   inkscape:version="0.92.1 r15371"
   width="35"
   height="27"><metadata
     id="metadata4635"><rdf:RDF><cc:Work
         rdf:about=""><dc:format>image/svg+xml</dc:format><dc:type
           rdf:resource="http://purl.org/dc/dcmitype/StillImage" /></cc:Work></rdf:RDF></metadata><defs
     id="defs4633" /><sodipodi:namedview
     pagecolor="#ffffff"
     bordercolor="#666666"
     borderopacity="1"
     objecttolerance="10"
     gridtolerance="10"
     guidetolerance="10"
     inkscape:pageopacity="0"
     inkscape:pageshadow="2"
     inkscape:window-width="1920"
     inkscape:window-height="1019"
     id="namedview4631"
     showgrid="false"
     inkscape:zoom="5.3400704"
     inkscape:cx="34.297863"
     inkscape:cy="40.649478"
     inkscape:window-x="0"
     inkscape:window-y="27"
     inkscape:window-maximized="1"
     inkscape:current-layer="svg4629" /><g
     id="g4623"
     style="fill:#7046bb;fill-opacity:1"
     transform="matrix(0.44871795,0,0,0.46471601,-5.3846154,-10.223752)"><path
       d="M 87.8,80 C 89,80 90,79 90,77.8 v -6 -7.6 -40 C 90,23 89,22 87.8,22 h -71 -2.7 v 0 C 13,22 12,23 12,24.2 v 53.7 c 0,1.2 1,2.2 2.2,2.2 H 87.8 Z M 19.3,29.8 c 0.7,-0.8 2,-0.9 2.8,-0.2 L 51,55.5 79.5,30 c 0.8,-0.7 2.1,-0.7 2.8,0.2 C 83,31 83,32.3 82.1,33 L 51,60.9 19.4,32.6 c -0.8,-0.7 -0.9,-2 -0.1,-2.8 z"
       id="path4621"
       style="fill:#7046bb;fill-opacity:1"
       inkscape:connector-curvature="0" /></g><g
     transform="matrix(0.44871795,0,0,0.46471601,-5.3846154,-10.223752)"
     style="fill:#7046bb;fill-opacity:1"
     id="g11269"><path
       inkscape:connector-curvature="0"
       style="fill:#7046bb;fill-opacity:1"
       id="path11267"
       d="M 87.8,80 C 89,80 90,79 90,77.8 v -6 -7.6 -40 C 90,23 89,22 87.8,22 h -71 -2.7 v 0 C 13,22 12,23 12,24.2 v 53.7 c 0,1.2 1,2.2 2.2,2.2 H 87.8 Z M 19.3,29.8 c 0.7,-0.8 2,-0.9 2.8,-0.2 L 51,55.5 79.5,30 c 0.8,-0.7 2.1,-0.7 2.8,0.2 C 83,31 83,32.3 82.1,33 L 51,60.9 19.4,32.6 c -0.8,-0.7 -0.9,-2 -0.1,-2.8 z" /></g></svg>