<?xml version="1.0" encoding="UTF-8" standalone="no"?>
<svg
   xmlns:dc="http://purl.org/dc/elements/1.1/"
   xmlns:cc="http://creativecommons.org/ns#"
   xmlns:rdf="http://www.w3.org/1999/02/22-rdf-syntax-ns#"
   xmlns:svg="http://www.w3.org/2000/svg"
   xmlns:sodipodi="http://sodipodi.sourceforge.net/DTD/sodipodi-0.dtd"
   xmlns:inkscape="http://www.inkscape.org/namespaces/inkscape"
   xmlns="http://www.w3.org/2000/svg"
   version="1.0"
   x="0px"
   y="0px"
   viewBox="0 0 39 27.000001"
   enable-background="new 0 0 24 24"
   xml:space="preserve"
   id="svg5867"
   sodipodi:docname="people.svg"
   inkscape:version="0.92.1 r15371"
   width="39"
   height="27"><metadata
     id="metadata5873"><rdf:RDF><cc:Work
         rdf:about=""><dc:format>image/svg+xml</dc:format><dc:type
           rdf:resource="http://purl.org/dc/dcmitype/StillImage" /></cc:Work></rdf:RDF></metadata><defs
     id="defs5871" /><sodipodi:namedview
     pagecolor="#ffffff"
     bordercolor="#666666"
     borderopacity="1"
     objecttolerance="10"
     gridtolerance="10"
     guidetolerance="10"
     inkscape:pageopacity="0"
     inkscape:pageshadow="2"
     inkscape:window-width="1920"
     inkscape:window-height="1019"
     id="namedview5869"
     showgrid="false"
     inkscape:zoom="9.8333333"
     inkscape:cx="11"
     inkscape:cy="7.9999962"
     inkscape:window-x="0"
     inkscape:window-y="27"
     inkscape:window-maximized="1"
     inkscape:current-layer="svg5867" /><g
     id="g5861"
     style="fill:#db444f;fill-opacity:0.94117647"
     transform="matrix(1.7647059,0,0,1.8,-1.7647059,-9)"><g
       id="g5855"
       style="fill:#db444f;fill-opacity:0.94117647"><path
         d="m 16.5,14 c -1.5,0 -2.7,0.4 -3.6,0.9 1.4,1.2 2,2.6 2.1,2.7 l 0.1,0.2 V 20 h 8 V 18 C 23,18 21.4,14 16.5,14 Z"
         id="path5853"
         style="fill:#db444f;fill-opacity:0.94117647"
         inkscape:connector-curvature="0" /></g><g
       id="g5859"
       style="fill:#db444f;fill-opacity:0.94117647"><circle
         cx="16.5"
         cy="8.5"
         r="3.5"
         id="circle5857"
         style="fill:#db444f;fill-opacity:0.94117647" /></g></g><g
     id="g5865"
     style="fill:#db444f;fill-opacity:0.94117647"
     transform="matrix(1.7647059,0,0,1.8,-1.7647059,-9)"><path
       d="M 4,8.5 C 4,6.6 5.6,5 7.5,5 9.4,5 11,6.6 11,8.5 11,10.4 9.4,12 7.5,12 5.6,12 4,10.4 4,8.5 Z M 7.5,14 C 2.6,14 1,18 1,18 v 2 h 13 v -2 c 0,0 -1.6,-4 -6.5,-4 z"
       id="path5863"
       style="fill:#db444f;fill-opacity:0.94117647"
       inkscape:connector-curvature="0" /></g></svg>