<?xml version="1.0" encoding="UTF-8" standalone="no"?>
<svg
   xmlns:dc="http://purl.org/dc/elements/1.1/"
   xmlns:cc="http://creativecommons.org/ns#"
   xmlns:rdf="http://www.w3.org/1999/02/22-rdf-syntax-ns#"
   xmlns:svg="http://www.w3.org/2000/svg"
   xmlns="http://www.w3.org/2000/svg"
   xmlns:sodipodi="http://sodipodi.sourceforge.net/DTD/sodipodi-0.dtd"
   xmlns:inkscape="http://www.inkscape.org/namespaces/inkscape"
   height="16"
   viewBox="0 0 16 16"
   width="16"
   version="1.1"
   id="svg7268"
   sodipodi:docname="phone.svg"
   style="fill:#000000"
   inkscape:version="0.92.1 r15371">
  <metadata
     id="metadata7274">
    <rdf:RDF>
      <cc:Work
         rdf:about="">
        <dc:format>image/svg+xml</dc:format>
        <dc:type
           rdf:resource="http://purl.org/dc/dcmitype/StillImage" />
        <dc:title></dc:title>
      </cc:Work>
    </rdf:RDF>
  </metadata>
  <defs
     id="defs7272" />
  <sodipodi:namedview
     pagecolor="#ffffff"
     bordercolor="#666666"
     borderopacity="1"
     objecttolerance="10"
     gridtolerance="10"
     guidetolerance="10"
     inkscape:pageopacity="0"
     inkscape:pageshadow="2"
     inkscape:window-width="1920"
     inkscape:window-height="1019"
     id="namedview7270"
     showgrid="false"
     inkscape:zoom="32.188802"
     inkscape:cx="9"
     inkscape:cy="9"
     inkscape:window-x="0"
     inkscape:window-y="27"
     inkscape:window-maximized="1"
     inkscape:current-layer="svg7268" />
  <path
     d="M -3,-5 H 21 V 19 H -3 Z"
     id="path7264"
     inkscape:connector-curvature="0"
     style="fill:none" />
  <path
     d="m 3.6617121,7.0296764 c 1.16,2.2797226 3.0288889,4.1405556 5.3086115,5.3086106 l 1.7722214,-1.772221 c 0.2175,-0.2175 0.539723,-0.29 0.821668,-0.193334 0.902221,0.298056 1.876944,0.459167 2.875833,0.459167 0.443055,0 0.805555,0.3625 0.805555,0.805556 v 2.811389 c 0,0.443055 -0.3625,0.805555 -0.805555,0.805555 -7.5641673,0 -13.69444509,-6.1302774 -13.69444509,-13.6944444 0,-0.4430556 0.36249999,-0.8055556 0.80555559,-0.8055556 H 4.370601 c 0.4430555,0 0.8055555,0.3625 0.8055555,0.8055556 0,1.0069444 0.1611111,1.9736111 0.4591667,2.8758333 0.088611,0.2819444 0.024166,0.5961112 -0.2013889,0.8216667 z"
     id="path7266"
     style="fill:#787878;fill-opacity:1;stroke-width:0.80555558"
     inkscape:connector-curvature="0" />
</svg>
