<?xml version="1.0" encoding="UTF-8" standalone="no"?>
<!-- Created with Inkscape (http://www.inkscape.org/) -->

<svg
   xmlns:dc="http://purl.org/dc/elements/1.1/"
   xmlns:cc="http://creativecommons.org/ns#"
   xmlns:rdf="http://www.w3.org/1999/02/22-rdf-syntax-ns#"
   xmlns:svg="http://www.w3.org/2000/svg"
   xmlns="http://www.w3.org/2000/svg"
   xmlns:sodipodi="http://sodipodi.sourceforge.net/DTD/sodipodi-0.dtd"
   xmlns:inkscape="http://www.inkscape.org/namespaces/inkscape"
   width="6.3499999mm"
   height="6.3499999mm"
   viewBox="0 0 6.3499999 6.3499999"
   version="1.1"
   id="svg6265"
   inkscape:version="0.92.1 r15371"
   sodipodi:docname="drawing.svg">
  <defs
     id="defs6259" />
  <sodipodi:namedview
     id="base"
     pagecolor="#ffffff"
     bordercolor="#666666"
     borderopacity="1.0"
     inkscape:pageopacity="0.0"
     inkscape:pageshadow="2"
     inkscape:zoom="15.839192"
     inkscape:cx="35.073564"
     inkscape:cy="17.336257"
     inkscape:document-units="mm"
     inkscape:current-layer="layer1"
     showgrid="false"
     inkscape:window-width="1920"
     inkscape:window-height="1019"
     inkscape:window-x="0"
     inkscape:window-y="27"
     inkscape:window-maximized="1" />
  <metadata
     id="metadata6262">
    <rdf:RDF>
      <cc:Work
         rdf:about="">
        <dc:format>image/svg+xml</dc:format>
        <dc:type
           rdf:resource="http://purl.org/dc/dcmitype/StillImage" />
        <dc:title></dc:title>
      </cc:Work>
    </rdf:RDF>
  </metadata>
  <g
     inkscape:label="Layer 1"
     inkscape:groupmode="layer"
     id="layer1"
     transform="translate(-110.87932,-142.25655)">
    <g
       transform="matrix(0.10948276,0,0,0.1094827,108.58018,35.690229)"
       id="g3736"
       style="fill:#094ab2;fill-opacity:1;fill-rule:nonzero"
       inkscape:export-xdpi="96"
       inkscape:export-ydpi="96">
      <path
         style="color:#000000;text-indent:0;text-transform:none;direction:ltr;baseline-shift:baseline;display:inline;overflow:visible;visibility:visible;fill:#094ab2;fill-opacity:1;fill-rule:nonzero;stroke:none;enable-background:accumulate"
         d="m 50,973.36217 c -16.0043,0 -29,12.99546 -29,29.00003 0,16.0043 12.9957,29 29,29 16.0043,0 29,-12.9957 29,-29 0,-16.00457 -12.9957,-29.00003 -29,-29.00003 z m 0,2 c 14.9235,0 27,12.07634 27,27.00003 0,14.9234 -12.0765,27 -27,27 -14.9235,0 -27,-12.0766 -27,-27 0,-14.92369 12.0765,-27.00003 27,-27.00003 z m 0,8 c -0.5523,0 -1,0.4477 -1,1 v 17.00003 H 32 c -0.5523,0 -1,0.4477 -1,1 0,0.5523 0.4477,1 1,1 h 17 v 17 c 0,0.5523 0.4477,1 1,1 0.5523,0 1,-0.4477 1,-1 v -17 h 17 c 0.5523,0 1,-0.4477 1,-1 0,-0.5523 -0.4477,-1 -1,-1 H 51 v -17.00003 c 0,-0.5523 -0.4477,-1 -1,-1 z"
         marker="none"
         visibility="visible"
         display="inline"
         overflow="visible"
         id="path3734"
         inkscape:connector-curvature="0" />
    </g>
  </g>
</svg>
