<?xml version="1.0" encoding="UTF-8" standalone="no"?>
<svg
   xmlns:dc="http://purl.org/dc/elements/1.1/"
   xmlns:cc="http://creativecommons.org/ns#"
   xmlns:rdf="http://www.w3.org/1999/02/22-rdf-syntax-ns#"
   xmlns:svg="http://www.w3.org/2000/svg"
   xmlns="http://www.w3.org/2000/svg"
   xmlns:sodipodi="http://sodipodi.sourceforge.net/DTD/sodipodi-0.dtd"
   xmlns:inkscape="http://www.inkscape.org/namespaces/inkscape"
   version="1.1"
   x="0px"
   y="0px"
   viewBox="0 0 14 14"
   xml:space="preserve"
   id="svg11264"
   sodipodi:docname="private-box.svg"
   width="14"
   height="14"
   inkscape:version="0.92.1 r15371"><metadata
     id="metadata11270"><rdf:RDF><cc:Work
         rdf:about=""><dc:format>image/svg+xml</dc:format><dc:type
           rdf:resource="http://purl.org/dc/dcmitype/StillImage" /></cc:Work></rdf:RDF></metadata><defs
     id="defs11268" /><sodipodi:namedview
     pagecolor="#ffffff"
     bordercolor="#666666"
     borderopacity="1"
     objecttolerance="10"
     gridtolerance="10"
     guidetolerance="10"
     inkscape:pageopacity="0"
     inkscape:pageshadow="2"
     inkscape:window-width="1920"
     inkscape:window-height="1019"
     id="namedview11266"
     showgrid="false"
     inkscape:zoom="6.18025"
     inkscape:cx="37.3"
     inkscape:cy="28.570947"
     inkscape:window-x="0"
     inkscape:window-y="27"
     inkscape:window-maximized="1"
     inkscape:current-layer="svg11264" /><title
     id="title11252">Artboard 77</title><path
     d="m 11.750332,10.5 c -0.2417,-0.03665 -0.464807,0.146597 -0.501992,0.384817 0,0.01832 0,0.03665 0,0.05497 v 0.293193 c 0,0.03665 0.03718,0.0733 0.07437,0.0733 v 0 h 0.743691 c 0.03719,0 0.07437,-0.03665 0.07437,-0.0733 v 0 -0.274869 c 0,-0.23822 -0.167331,-0.43979 -0.390439,-0.458115 z"
     id="path11254"
     inkscape:connector-curvature="0"
     style="fill:#787878;fill-opacity:1;stroke-width:0.18457967" /><path
     d="m 11.694555,9.437173 c -1.282868,0 -2.305444,1.026178 -2.305444,2.272251 C 9.389111,12.955497 10.411687,14 11.694555,14 12.977424,14 14,12.973822 14,11.727749 v 0 C 14,10.463351 12.958831,9.437173 11.694555,9.437173 Z m 1.13413,3.536649 c 0,0.03665 -0.03719,0.0733 -0.07437,0.0733 v 0 h -2.119523 c -0.03719,0 -0.07437,-0.03665 -0.07437,-0.0733 v 0 -1.612565 c 0,-0.03665 0.03719,-0.0733 0.07437,-0.0733 v 0 h 0.167331 c 0.03719,0 0.07437,-0.03665 0.07437,-0.0733 v 0 -0.293194 c 0,-0.439791 0.371846,-0.806283 0.818061,-0.806283 0.0186,0 0.05577,0 0.07437,0 0.427623,0.03665 0.743693,0.403142 0.743693,0.824608 v 0.256544 c 0,0.03665 0.03719,0.0733 0.07437,0.0733 v 0 h 0.167331 c 0.03719,0 0.07437,0.03665 0.07437,0.0733 v 0 z"
     id="path11256"
     inkscape:connector-curvature="0"
     style="fill:#787878;fill-opacity:1;stroke-width:0.18457967" /><path
     d="m 8.422311,12.240838 c -0.05577,-0.47644 0,-0.95288 0.167331,-1.410995 0.371846,-1.081152 1.264276,-1.905759 2.361222,-2.198953 0.464807,-0.128272 0.948207,-0.146597 1.413014,-0.0733 0.297477,0.05497 0.594953,-0.164922 0.632139,-0.458116 0,-0.03665 0,-0.05497 0,-0.09162 V 5.515707 L 11.24834,0.256545 C 11.192564,0.109948 11.062417,0 10.895087,0 H 2.119522 C 1.952192,0 1.822046,0.109948 1.766269,0.256545 L 0,5.515707 v 6.963351 c 0,0.20157 0.16733,0.366492 0.371846,0.366492 h 7.492696 c 0.316069,0 0.557769,-0.23822 0.557769,-0.549738 0,-0.01833 0,-0.03665 0,-0.05497 z M 1.115537,4.544503 2.34263,0.879581 C 2.36122,0.806281 2.43559,0.751309 2.528553,0.751309 h 7.957503 c 0.07437,0 0.148738,0.05497 0.167331,0.128272 l 1.227091,3.664922 c 0.03719,0.09162 -0.0186,0.20157 -0.111554,0.23822 -0.01859,0 -0.03719,0 -0.05577,0 H 1.282869 c -0.111554,0 -0.185923,-0.0733 -0.185923,-0.183247 0,-0.01832 0,-0.03665 0.01859,-0.05497 z m 2.602922,3.719895 v 0 c 0,-0.513089 0.409031,-0.91623 0.929616,-0.91623 h 3.718459 c 0.520584,0 0.929615,0.403141 0.929615,0.91623 v 0 c 0,0.513089 -0.409031,0.91623 -0.929615,0.91623 v 0 H 4.648075 c -0.520585,0 -0.929616,-0.403141 -0.929616,-0.91623 z"
     id="path11258"
     inkscape:connector-curvature="0"
     style="fill:#787878;fill-opacity:1;stroke-width:0.18457967" /></svg>