<?xml version="1.0" encoding="UTF-8" standalone="no"?>
<svg
   xmlns:dc="http://purl.org/dc/elements/1.1/"
   xmlns:cc="http://creativecommons.org/ns#"
   xmlns:rdf="http://www.w3.org/1999/02/22-rdf-syntax-ns#"
   xmlns:svg="http://www.w3.org/2000/svg"
   xmlns="http://www.w3.org/2000/svg"
   xmlns:sodipodi="http://sodipodi.sourceforge.net/DTD/sodipodi-0.dtd"
   xmlns:inkscape="http://www.inkscape.org/namespaces/inkscape"
   version="1.1"
   x="0px"
   y="0px"
   viewBox="0 0 14 14"
   xml:space="preserve"
   id="svg11264"
   sodipodi:docname="public-box.svg"
   width="14"
   height="14"
   inkscape:version="0.92.1 r15371"><metadata
     id="metadata11270"><rdf:RDF><cc:Work
         rdf:about=""><dc:format>image/svg+xml</dc:format><dc:type
           rdf:resource="http://purl.org/dc/dcmitype/StillImage" /><dc:title>Artboard 77</dc:title></cc:Work></rdf:RDF></metadata><defs
     id="defs11268" /><sodipodi:namedview
     pagecolor="#ffffff"
     bordercolor="#666666"
     borderopacity="1"
     objecttolerance="10"
     gridtolerance="10"
     guidetolerance="10"
     inkscape:pageopacity="0"
     inkscape:pageshadow="2"
     inkscape:window-width="1920"
     inkscape:window-height="1019"
     id="namedview11266"
     showgrid="false"
     inkscape:zoom="17.480387"
     inkscape:cx="13.426115"
     inkscape:cy="2.1833783"
     inkscape:window-x="0"
     inkscape:window-y="27"
     inkscape:window-maximized="1"
     inkscape:current-layer="svg11264" /><title
     id="title11252">Artboard 77</title><path
     d="m 8.8637735,12.991982 c -0.058693,-0.505675 0,-1.011352 0.1761018,-1.497578 0.3913366,-1.147496 1.3305437,-2.0227043 2.4849877,-2.3338898 0.48917,-0.1361432 0.997908,-0.1555927 1.487078,-0.077798 0.31307,0.058343 0.626138,-0.1750422 0.665273,-0.4862277 0,-0.038899 0,-0.058343 0,-0.097242 V 5.8541718 L 11.837931,0.27228758 C 11.779232,0.11669483 11.642263,0 11.466163,0 H 2.2306185 C 2.0545178,0 1.91755,0.11669483 1.8588494,0.27228758 L 0,5.8541718 v 7.3906492 c 0,0.213939 0.17610074,0.388981 0.39133662,0.388981 H 8.2767686 c 0.332636,0 0.5870049,-0.252838 0.5870049,-0.583472 0,-0.01946 0,-0.0389 0,-0.05835 z M 1.1740088,4.823371 2.4654209,0.93355548 c 0.019565,-0.0777982 0.097832,-0.1361433 0.1956683,-0.1361433 h 8.3746018 c 0.07827,0 0.156535,0.0583432 0.176102,0.1361433 l 1.29141,3.88981552 c 0.03914,0.097242 -0.01957,0.2139391 -0.117401,0.2528381 -0.01957,0 -0.03914,0 -0.0587,0 H 1.3501116 c -0.1174012,0 -0.1956683,-0.077798 -0.1956683,-0.1944918 0,-0.019444 0,-0.038899 0.019565,-0.058343 z m 2.7393563,3.9481619 v 0 c 0,-0.5445741 0.4304708,-0.9724534 0.9783426,-0.9724534 h 3.9133652 c 0.5478708,0 0.9783416,0.4278793 0.9783416,0.9724534 v 0 c 0,0.5445741 -0.4304708,0.9724533 -0.9783416,0.9724533 v 0 H 4.8917077 c -0.5478718,0 -0.9783426,-0.4278792 -0.9783426,-0.9724533 z"
     id="path11258"
     inkscape:connector-curvature="0"
     style="fill:#787878;fill-opacity:1;stroke-width:0.19507863" /><path
     inkscape:connector-curvature="0"
     style="opacity:0.98999999;fill:#787878;fill-opacity:1;stroke-width:0.04374432"
     enable-background="new    "
     d="m 11.807942,9.6387164 c -0.599305,0 -1.145565,0.2381702 -1.544268,0.6288966 -0.3986589,0.390729 -0.6512976,0.940337 -0.6512976,1.551745 0,0.611453 0.2526387,1.161016 0.6512976,1.551744 C 10.662333,13.761829 11.208637,14 11.807942,14 c 0.599306,0 1.142056,-0.238171 1.54076,-0.628898 C 13.74736,12.980374 14,12.430811 14,11.819358 14,11.20795 13.74736,10.658342 13.348702,10.267613 12.949998,9.8768866 12.407248,9.6387164 11.807942,9.6387164 Z m 0,0.2632036 c 0.554815,0 1.053513,0.223689 1.411192,0.574206 0.357636,0.350516 0.570742,0.823499 0.570742,1.343232 0,0.519734 -0.213106,0.992715 -0.570742,1.343231 -0.357679,0.350561 -0.856421,0.574251 -1.411192,0.574251 -0.554813,0 -1.057022,-0.22369 -1.414701,-0.574251 -0.357635,-0.350516 -0.5707409,-0.823497 -0.5707409,-1.343231 0,-0.519733 0.2131059,-0.992716 0.5707849,-1.343232 0.357635,-0.350517 0.859844,-0.574206 1.414657,-0.574206 z m 0.570788,0.533166 0.140051,0.242663 -0.248645,0.276854 -0.143519,0.04783 -0.16809,-0.06154 -0.238117,0.109381 -0.0315,0.133326 0.06305,0.123032 0.112017,-0.211916 0.04554,0.136727 -0.112104,0.109383 -0.266108,0.02734 -0.06306,0.06493 0.06306,0.07519 -0.140053,0.05809 0.09454,0.133325 0.108549,-0.06154 0.09455,-0.09913 0.164623,0.08204 0.05598,0.02396 0.05949,0.09909 0.03154,0.03759 -0.322182,-0.03079 c 0,0 -0.256589,-0.0092 -0.28015,0.01369 l -0.133077,0.232456 0.0315,0.228967 0.266111,0.07863 0.157604,0.105976 v 0.307602 l 0.0455,0.21536 h 0.157603 l 0.157605,-0.09225 0.10855,-0.263203 -0.014,-0.184569 0.140053,-0.198221 0.126056,-0.228967 0.143564,-0.04448 0.07705,0.273453 0.203104,-0.181168 0.0315,0.348641 0.171601,0.140127 0.129523,-0.03075 -0.161072,-0.184525 0.03155,-0.167517 0.0945,0.01714 -0.07705,-0.170874 0.140054,-0.09233 0.07705,-0.276855 0.06655,-0.246107 -0.08056,-0.167473 0.03155,-0.05813 0.108548,0.334946 0.0315,-0.457978 -0.252112,-0.215317 h -0.406201 z m -1.127533,0.11963 -0.234605,0.123075 0.09104,0.430678 0.06306,0.01709 0.10855,-0.198222 0.143563,-0.123029 -0.04901,-0.184571 z m -0.801926,0.263205 -0.1716,0.167472 v 0.09229 l -0.07705,0.184525 -0.04901,0.444328 0.126057,0.246107 0.297657,0.334947 -0.0175,0.263202 0.06652,0.167474 v 0.396485 l 0.185592,0.09228 -0.0315,-0.140129 0.171598,-0.09227 0.283617,-0.321296 -0.297656,-0.365736 -0.346665,-0.136728 -0.252115,-0.228967 0.06652,-0.109382 0.22061,-0.01365 0.05954,-0.259759 0.297656,-0.184569 -0.280149,-0.276855 -0.11206,0.06154 z"
     id="path11863" /></svg>