<?xml version="1.0" encoding="utf-8"?>
<!-- Generator: Adobe Illustrator 20.1.0, SVG Export Plug-In . SVG Version: 6.00 Build 0)  -->
<svg xmlns:xlink="http://www.w3.org/1999/xlink" version="1.1" id="Слой_1" xmlns="http://www.w3.org/2000/svg" x="0px" y="0px"
	 viewBox="0 0 900 700" style="enable-background:new 0 0 900 700;" xml:space="preserve">
<style type="text/css">
	.st0{fill:#ACB3BD;}
</style>
<g>
	<g>
		<path class="st0" d="M70.8,699.4c0-3.8,0.2-7.6-0.1-11.4c-0.1-1.9-1-3.7-1.5-5.5c-0.3-1.2-0.8-2.3-0.8-3.5c-0.1-2.7,0-5.5-0.1-8.2
			c-0.1-3.9-0.1-7.6-1.6-11.5c-1.4-3.9-0.5-8.6-0.7-12.9c-0.2-3.2,0.8-6.6-2-9.3c-0.6-0.6-0.4-2.1-0.4-3.2c0-4.2,0.2-8.4-0.1-12.6
			c-0.1-2.2-1.2-4.3-1.7-6.5c-0.3-1.1-0.4-2.2-0.4-3.3c-0.1-4,0.1-7.9-0.1-11.9c-0.1-3.1,0.7-6.4-1.9-9.1c-0.6-0.6-0.3-2.1-0.3-3.3
			c0-11.9-1.4-24,0.4-35.6c1.6-9.9,0.2-20,2.3-29.5c1.3-6-0.4-12.7,2.2-17.4c3.3-6-0.4-12.9,4-18.2c0.7-0.8,0.2-2.6,0.3-4
			c0.2-2.6-0.7-5.6,2.2-7.4c0.2-0.1,0.2-0.4,0.3-0.7c0.8-4.9,1.5-9.8,2.4-14.7c0.2-1.1,1-2.1,1.5-3.2c0.2-0.3,0.5-0.5,0.6-0.8
			c0.8-4.1,1.4-8.2,2.5-12.2c1-3.6,2.5-7,3.8-10.5c0.2-0.6,0.4-1.2,0.6-1.7c0.9-3.6,0.8-8.2,3-10.4c2.7-2.7,0.2-6.8,4-9.1
			c1.9-1.2,1.6-5.5,2.7-8.3c1-2.6,2.6-4.9,3.9-7.3c0.9-1.8,1.7-3.8,2.5-5.7c1.8-4.4,3.5-8.8,5.5-13.2c1.4-3.1,3.3-6,4.9-9
			c1.4-2.7,2.6-5.5,4.1-8.1c1.6-2.8,3.6-5.3,5.3-8c2.1-3.4,4.1-6.9,6.2-10.2c0.7-1.1,1.7-2,2.5-3c3.8-5.4,7.4-10.9,11.5-16.1
			c4.7-6,9.7-11.7,14.6-17.5c4.5-5.2,8.8-10.7,13.6-15.5c5.2-5.2,11.1-9.7,16.6-14.6c3-2.7,5.8-5.5,8.8-8.2c0.8-0.8,1.9-1.2,2.9-1.9
			c2.6-2,5.2-4,7.9-5.9c4.4-3.2,9-6.2,13.4-9.4c3.1-2.2,5.8-4.9,9-6.8c4.7-2.8,9.9-4.8,14.7-7.5c4.6-2.6,8.9-5.9,13.6-8.4
			c4-2.1,8.4-3.5,12.6-5.3c2.3-1,4.6-2.2,6.9-3.2c3-1.3,6-2.5,8.9-3.9c2.7-1.3,5.4-2.8,8.1-4.1c0.2-0.1,0.4-0.3,0.6-0.3
			c3.4-0.8,6.7-1.5,10.1-2.4c2-0.6,3.9-1.5,5.9-2.3c3.7-1.4,7.4-2.9,11.1-4.3c0.2-0.1,0.4-0.2,0.7-0.3c3.8-0.8,7.6-1.3,11.3-2.4
			c4.1-1.2,8.1-2.8,12.1-4.3c0.1,0,0.2-0.1,0.4-0.1c4.8-0.9,9.5-1.8,14.3-2.6c2-0.4,4.3,0.8,5.8-1.8c0.3-0.6,2.3-0.2,3.5-0.4
			c2.9-0.5,6.2,1.4,8.7-2c0.6-0.8,2.8-0.2,4.3-0.4c3.3-0.4,6.5,0.7,9.7-1.8c1.6-1.3,5-0.3,7.6-0.4c3-0.2,6.1,0.8,8.6-1.9
			c0.7-0.8,2.6-0.4,3.9-0.5c6.2-0.5,12.4,0.8,18.6-1.8c3-1.3,6.8-0.4,10.3-0.4c6.3,0,12.6,0,19.2,0c0.1-2,0.2-3.6,0.2-5.1
			c0.2-14.4,0.3-28.8,0.5-43.2c0.5-34.7,1.1-69.4,1.7-104c0-1.1,0-2.2,0-4.8c2.2,1.4,3.6,2.3,4.9,3.1c1.6,0.9,3.3,1.8,4.8,2.8
			c1.1,0.7,2,1.7,3.1,2.5c3.3,2.4,6.5,4.8,9.8,7.1c4.5,3.1,9.1,5.9,13.5,9.2c4.4,3.2,8.5,6.9,12.8,10.2c1.7,1.4,3.7,2.4,5.5,3.7
			c6.3,4.6,12.5,9.3,18.8,14c3.8,2.9,7.2,6.3,11.3,8.7c5.7,3.4,10.9,7.3,15.9,11.7c3.6,3.1,8.3,5,12.3,7.6c2.2,1.4,3.9,3.5,6.1,5.1
			c4.2,3,8.6,5.8,12.8,8.8c4.2,3,8.1,6.3,12.2,9.4c4.1,3.1,8.4,6,12.5,9c4.6,3.3,9.1,6.7,13.6,10.1c4,2.9,8.1,5.7,12,8.6
			c4.5,3.4,9,6.9,13.5,10.3c1.4,1.1,3.1,1.8,4.5,2.8c4.2,3.3,8.3,6.8,12.6,9.9c4.5,3.3,9.3,6.3,13.9,9.6c5.4,3.8,10.7,7.7,16,11.6
			c4.6,3.4,9,7,13.6,10.3c3.9,2.9,7.9,5.5,11.9,8.3c0.8,0.6,1.4,1.4,2.1,2c4,3.1,7.8,6.5,12.1,9c5.9,3.4,10.7,8,16.2,11.7
			c3.2,2.1,5.9,5.6,9.1,6.7c5,1.7,7.6,6.2,12.3,8.2c4.8,2.1,8.4,6.6,12.7,9.8c4,3,8.2,5.6,12.3,8.4c0.6,0.4,1.1,1.1,1.7,1.5
			c4.2,3.3,8,7.3,12.6,9.6c5.3,2.6,9.1,7.1,14.1,9.8c1.3,0.7,1.8,2.7,2.8,4.2c-1.8,1.2-4.5,2.9-7,4.9c-4.7,3.6-8.8,8.5-14.1,10.8
			c-4.7,2.1-6.9,7.3-12.4,8.2c-2,0.3-3.4,3.1-5.3,4.5c-4.4,3.2-9.1,6-13.3,9.4c-4.4,3.4-8.3,7.5-12.7,10.9
			c-4.4,3.4-9.2,6.4-13.8,9.7c-4.6,3.3-9,6.7-13.5,10c-2.7,2.1-5.5,4.2-8.2,6.3c-3.7,2.9-7.6,5.6-11.4,8.5c-3.2,2.4-6.2,5-9.4,7.4
			c-3.8,2.9-8.2,5-12.2,7.6c-1.7,1.2-3,3.1-4.7,4.3c-4.6,3.3-9.6,6.3-14.1,9.8c-4.4,3.4-8.2,7.5-12.6,10.9
			c-4.4,3.4-9.2,6.3-13.8,9.5c-4.6,3.2-9,6.6-13.5,10c-2.8,2.1-5.6,4.2-8.4,6.4c-3.6,2.9-6.9,6.6-11,8.4c-5.6,2.5-9.2,7.3-14.3,10.3
			c-4.8,2.8-8.8,7-13.4,10.4c-4,2.9-8.4,5.4-12.5,8.3c-2.1,1.5-3.9,3.5-6,5c-4.1,3-8.5,5.7-12.5,8.8c-4.5,3.5-8.7,7.2-13.2,10.8
			c-1,0.8-2.6,0.9-3.5,1.7c-5.1,4.1-10,8.5-15.2,12.5c-3.8,2.9-8.1,5-12.1,7.7c-1.8,1.2-3.1,3-4.8,4.4c-3.6,3-6.9,7-11.1,8.5
			c-5.1,1.8-7.4,6.9-12.6,8.4c-2.5,0.7-4.1,3.9-6.4,5.6c-4.6,3.5-9.4,6.6-14.1,10c-4,3-8,6.1-12.8,9.8c-0.4-14-0.1-27.4-0.2-40.9
			c0-13.5,0-27,0-40.6c0-13.6,0-27.3,0-40.9c0-13.5,0-27,0-40.7c-1.4-0.1-2.5-0.2-3.6-0.2c-19.1,0-38.2-0.1-57.3,0.1
			c-1.7,0-3.5,1.2-5.2,1.6c-1.3,0.3-2.7,0.6-4,0.6c-2.8,0.1-5.7-0.1-8.6,0.1c-2.9,0.1-5.7-0.1-8.7,1.6c-2.5,1.4-6.3,0.5-9.5,0.7
			c-2.1,0.1-4.6-0.8-5.8,2c-0.1,0.2-0.6,0.3-1,0.3c-5.8,0.8-11.7,1.5-17.5,2.4c-1.6,0.3-3.1,1.2-4.6,1.9c-0.3,0.1-0.6,0.4-1,0.4
			c-4.6,0.8-9.3,1.3-13.9,2.4c-3.7,0.9-7.1,2.6-10.6,4c-0.2,0.1-0.4,0.3-0.6,0.4c-3.7,0.8-7.9,0.8-10.8,2.7c-3.2,2.1-7.4,0.6-10,4
			c-1.1,1.4-3.8,1.6-5.8,2.2c-2.9,1-5.9,1.7-8.7,3c-4.4,2-8.7,4.4-13.1,6.5c-5,2.5-10.2,4.8-15.1,7.4c-3.8,2-7.5,4.4-11.1,6.8
			c-3.2,2.1-6.1,4.5-9.3,6.6c-3.9,2.6-8.2,4.6-11.9,7.4c-5.3,4.1-9.9,9.3-15.5,12.9c-10.5,6.7-17.8,16.7-27,24.7
			c-3.8,3.3-6.4,8.1-9.7,12.1c-1.6,2-3.5,3.9-5.2,5.9c-1.4,1.7-2.8,3.4-4.1,5.3c-3.3,4.9-7.3,9.3-9.8,14.9c-1.3,3-4.4,5.2-6.3,8
			c-2,3.1-3.3,6.7-5.1,9.9c-1.3,2.3-2.9,4.3-4.2,6.5c-0.9,1.4-1.6,3-2.2,4.6c-1,2.4-1.9,5-3,7.3c-1.2,2.3-2.6,4.4-4,6.6
			c-1,1.6,0,3.6-2.2,5.4c-2,1.6-1.8,5.7-2.9,8.5c-1,2.4-2.4,4.7-3.6,7c-0.3,0.6-0.7,1.3-0.8,1.9c-0.8,3.8-2,7.2-4.5,10.3
			c-1.4,1.6-1.7,4.1-2.4,6.2c-1.7,4.9-3.1,9.9-5.1,14.7c-1.7,4.1-4.3,7.9-6.2,11.9c-1.2,2.4-1.8,5.1-2.8,7.7c-1,2.7-2.2,5.4-3.3,8
			c-1.3,3.2-2.4,6.4-3.8,9.5c-1.5,3.4-3.2,6.7-4.9,10C72.1,699.8,71.4,699.6,70.8,699.4z"/>
	</g>
</g>
</svg>
