<?xml version="1.0" standalone="no"?><!-- Generator: Gravit.io --><svg xmlns="http://www.w3.org/2000/svg" xmlns:xlink="http://www.w3.org/1999/xlink" style="isolation:isolate" viewBox="0 0 14.4 18" width="14.4" height="18"><defs><clipPath id="_clipPath_wSDGYTmFCDAMqcWITR3NfOhsJ8xn2GNn"><rect width="14.4" height="18"/></clipPath></defs><g clip-path="url(#_clipPath_wSDGYTmFCDAMqcWITR3NfOhsJ8xn2GNn)"><path d=" M 8.1 6.288 L 8.1 6.3 L 8.1 6.3 L 13.05 6.3 L 8.1 1.35 L 8.1 1.365 L 8.1 1.365 L 8.1 3.826 L 8.1 6.288 L 8.1 6.288 Z  M 6.2 16.625 L 6.2 11 L 4.2 11 L 7.2 7.625 L 10.2 11 L 8.2 11 L 8.2 16.625 L 6.2 16.625 L 6.2 16.625 Z  M 8.1 6.3 L 8.1 6.3 Z  M 1.8 0 L 9 0 L 14.4 5.4 L 14.4 16.2 C 14.4 16.677 14.21 17.135 13.873 17.473 C 13.535 17.81 13.077 18 12.6 18 L 1.8 18 C 1.323 18 0.865 17.81 0.527 17.473 C 0.19 17.135 0 16.677 0 16.2 L 0 1.8 C 0 0.801 0.801 0 1.8 0 L 1.8 0 Z " fill-rule="evenodd" fill="rgb(120,120,120)"/></g></svg>