<?xml version="1.0" encoding="UTF-8" standalone="no"?>
<svg
   xmlns:dc="http://purl.org/dc/elements/1.1/"
   xmlns:cc="http://creativecommons.org/ns#"
   xmlns:rdf="http://www.w3.org/1999/02/22-rdf-syntax-ns#"
   xmlns:svg="http://www.w3.org/2000/svg"
   xmlns="http://www.w3.org/2000/svg"
   xmlns:sodipodi="http://sodipodi.sourceforge.net/DTD/sodipodi-0.dtd"
   xmlns:inkscape="http://www.inkscape.org/namespaces/inkscape"
   version="1.1"
   x="0px"
   y="0px"
   viewBox="0 0 16 14"
   xml:space="preserve"
   id="svg4547"
   sodipodi:docname="wallet.svg"
   width="16"
   height="14"
   inkscape:version="0.92.1 r15371"><metadata
     id="metadata4553"><rdf:RDF><cc:Work
         rdf:about=""><dc:format>image/svg+xml</dc:format><dc:type
           rdf:resource="http://purl.org/dc/dcmitype/StillImage" /><dc:title></dc:title></cc:Work></rdf:RDF></metadata><defs
     id="defs4551" /><sodipodi:namedview
     pagecolor="#ffffff"
     bordercolor="#666666"
     borderopacity="1"
     objecttolerance="10"
     gridtolerance="10"
     guidetolerance="10"
     inkscape:pageopacity="0"
     inkscape:pageshadow="2"
     inkscape:window-width="1920"
     inkscape:window-height="1019"
     id="namedview4549"
     showgrid="false"
     inkscape:zoom="6.8166667"
     inkscape:cx="38.286797"
     inkscape:cy="25.867971"
     inkscape:window-x="0"
     inkscape:window-y="27"
     inkscape:window-maximized="1"
     inkscape:current-layer="svg4547" /><g
     id="g4541"
     style="fill:#787878;fill-opacity:1"
     transform="matrix(0.21220159,0,0,0.21875,-2.1856764,-3.5)"><path
       d="m 80,80 c 3.2,0 5.7,-2.5 5.7,-5.7 V 21.7 C 85.7,18.5 83.2,16 80,16 H 16 c -3.2,0 -5.7,2.5 -5.7,5.7 v 52.5 c 0,3.2 2.5,5.7 5.7,5.7 H 80 Z M 15.2,74.3 V 21.7 c 0,-0.5 0.3,-0.8 0.8,-0.8 h 64 c 0.5,0 0.8,0.3 0.8,0.8 V 35.2 H 67.3 c -7,0 -12.7,5.7 -12.7,12.7 0,7 5.7,12.7 12.7,12.7 h 13.5 v 13.5 c 0,0.5 -0.3,0.8 -0.8,0.8 H 16 c -0.5,0.2 -0.8,-0.2 -0.8,-0.6 z"
       id="path4539"
       style="fill:#787878;fill-opacity:1"
       inkscape:connector-curvature="0" /></g></svg>