<?xml version="1.0" encoding="UTF-8" standalone="no"?>
<svg
   xmlns:dc="http://purl.org/dc/elements/1.1/"
   xmlns:cc="http://creativecommons.org/ns#"
   xmlns:rdf="http://www.w3.org/1999/02/22-rdf-syntax-ns#"
   xmlns:svg="http://www.w3.org/2000/svg"
   xmlns="http://www.w3.org/2000/svg"
   xmlns:sodipodi="http://sodipodi.sourceforge.net/DTD/sodipodi-0.dtd"
   xmlns:inkscape="http://www.inkscape.org/namespaces/inkscape"
   height="15"
   viewBox="0 0 16 15"
   width="16"
   version="1.1"
   id="svg5138"
   sodipodi:docname="wallet2000.svg"
   style="fill:#000000"
   inkscape:version="0.92.1 r15371">
  <metadata
     id="metadata5144">
    <rdf:RDF>
      <cc:Work
         rdf:about="">
        <dc:format>image/svg+xml</dc:format>
        <dc:type
           rdf:resource="http://purl.org/dc/dcmitype/StillImage" />
      </cc:Work>
    </rdf:RDF>
  </metadata>
  <defs
     id="defs5142" />
  <sodipodi:namedview
     pagecolor="#ffffff"
     bordercolor="#666666"
     borderopacity="1"
     objecttolerance="10"
     gridtolerance="10"
     guidetolerance="10"
     inkscape:pageopacity="0"
     inkscape:pageshadow="2"
     inkscape:window-width="1920"
     inkscape:window-height="1019"
     id="namedview5140"
     showgrid="false"
     inkscape:zoom="32.188802"
     inkscape:cx="9"
     inkscape:cy="9"
     inkscape:window-x="0"
     inkscape:window-y="27"
     inkscape:window-maximized="1"
     inkscape:current-layer="svg5138" />
  <path
     d="M -3,-6 H 21 V 18 H -3 Z"
     id="path5134"
     inkscape:connector-curvature="0"
     style="fill:none" />
  <path
     d="m 15.157895,12.5 v 0.833333 C 15.157895,14.25 14.4,15 13.473684,15 H 1.6842105 C 0.7494737,15 0,14.25 0,13.333333 V 1.6666666 C 0,0.75 0.7494737,0 1.6842105,0 H 13.473684 C 14.4,0 15.157895,0.75 15.157895,1.6666666 V 2.5 H 7.578947 C 6.6442105,2.5 5.8947368,3.25 5.8947368,4.166667 v 6.666667 C 5.8947368,11.75 6.6442105,12.5 7.578947,12.5 Z M 7.578947,10.833334 H 16 V 4.166667 H 7.578947 Z M 10.947368,8.75 c -0.698947,0 -1.263157,-0.558333 -1.263157,-1.25 0,-0.691667 0.56421,-1.25 1.263157,-1.25 0.698948,0 1.263158,0.558333 1.263158,1.25 0,0.691667 -0.56421,1.25 -1.263158,1.25 z"
     id="path5136"
     style="fill:#787878;fill-opacity:1;stroke-width:0.83770782"
     inkscape:connector-curvature="0" />
</svg>
