<?xml version="1.0" encoding="UTF-8" standalone="no"?>
<svg
   xmlns:dc="http://purl.org/dc/elements/1.1/"
   xmlns:cc="http://creativecommons.org/ns#"
   xmlns:rdf="http://www.w3.org/1999/02/22-rdf-syntax-ns#"
   xmlns:svg="http://www.w3.org/2000/svg"
   xmlns="http://www.w3.org/2000/svg"
   xmlns:sodipodi="http://sodipodi.sourceforge.net/DTD/sodipodi-0.dtd"
   xmlns:inkscape="http://www.inkscape.org/namespaces/inkscape"
   version="1.1"
   width="15"
   height="15"
   viewBox="0 0 15 15"
   id="svg865"
   sodipodi:docname="websites.svg"
   inkscape:version="0.92.2 (unknown)">
  <metadata
     id="metadata871">
    <rdf:RDF>
      <cc:Work
         rdf:about="">
        <dc:format>image/svg+xml</dc:format>
        <dc:type
           rdf:resource="http://purl.org/dc/dcmitype/StillImage" />
      </cc:Work>
    </rdf:RDF>
  </metadata>
  <defs
     id="defs869" />
  <sodipodi:namedview
     pagecolor="#ffffff"
     bordercolor="#666666"
     borderopacity="1"
     objecttolerance="10"
     gridtolerance="10"
     guidetolerance="10"
     inkscape:pageopacity="0"
     inkscape:pageshadow="2"
     inkscape:window-width="1920"
     inkscape:window-height="1056"
     id="namedview867"
     showgrid="true"
     showguides="false"
     inkscape:zoom="19.041667"
     inkscape:cx="17.657149"
     inkscape:cy="2.3879147"
     inkscape:window-x="1366"
     inkscape:window-y="24"
     inkscape:window-maximized="1"
     inkscape:current-layer="svg865">
    <inkscape:grid
       type="xygrid"
       id="grid873"
       originx="-3.528"
       originy="-4.2" />
  </sodipodi:namedview>
  <path
     d="M 10.77,9 C 10.83,8.505 10.875,8.01 10.875,7.5 10.875,6.99 10.83,6.495 10.77,6 h 2.535 c 0.12,0.48 0.195,0.9825 0.195,1.5 0,0.5175 -0.075,1.02 -0.195,1.5 m -3.8625,4.17 c 0.45,-0.8325 0.795,-1.7325 1.035,-2.67 H 12.69 c -0.72,1.2375 -1.8675,2.1975 -3.2475,2.67 M 9.255,9 H 5.745 C 5.67,8.505 5.625,8.01 5.625,7.5 5.625,6.99 5.67,6.4875 5.745,6 h 3.51 c 0.0675,0.4875 0.12,0.99 0.12,1.5 0,0.51 -0.0525,1.005 -0.12,1.5 M 7.5,13.47 C 6.8775,12.57 6.375,11.5725 6.0675,10.5 h 2.865 C 8.625,11.5725 8.1225,12.57 7.5,13.47 M 4.5,4.5 H 2.31 C 3.0225,3.255 4.1775,2.295 5.55,1.83 5.1,2.6625 4.7625,3.5625 4.5,4.5 m -2.19,6 H 4.5 c 0.2625,0.9375 0.6,1.8375 1.05,2.67 C 4.1775,12.6975 3.0225,11.7375 2.31,10.5 M 1.695,9 C 1.575,8.52 1.5,8.0175 1.5,7.5 1.5,6.9825 1.575,6.48 1.695,6 H 4.23 C 4.17,6.495 4.125,6.99 4.125,7.5 4.125,8.01 4.17,8.505 4.23,9 M 7.5,1.5225 c 0.6225,0.9 1.125,1.905 1.4325,2.9775 H 6.0675 C 6.375,3.4275 6.8775,2.4225 7.5,1.5225 M 12.69,4.5 H 10.4775 C 10.2375,3.5625 9.8925,2.6625 9.4425,1.83 10.8225,2.3025 11.97,3.255 12.69,4.5 M 7.5,0 C 3.3525,0 0,3.375 0,7.5 A 7.5,7.5 0 0 0 7.5,15 7.5,7.5 0 0 0 15,7.5 7.5,7.5 0 0 0 7.5,0 Z"
     id="path863"
     inkscape:connector-curvature="0"
     style="fill:#a6a6a6;fill-opacity:1;stroke-width:0.75" />
</svg>
