<?xml version="1.0" encoding="UTF-8" standalone="no"?>
<svg
   xmlns:dc="http://purl.org/dc/elements/1.1/"
   xmlns:cc="http://creativecommons.org/ns#"
   xmlns:rdf="http://www.w3.org/1999/02/22-rdf-syntax-ns#"
   xmlns:svg="http://www.w3.org/2000/svg"
   xmlns="http://www.w3.org/2000/svg"
   xmlns:sodipodi="http://sodipodi.sourceforge.net/DTD/sodipodi-0.dtd"
   xmlns:inkscape="http://www.inkscape.org/namespaces/inkscape"
   height="16"
   viewBox="0 0 16 16"
   width="16"
   version="1.1"
   id="svg5902"
   sodipodi:docname="website.svg"
   style="fill:#000000"
   inkscape:version="0.92.1 r15371">
  <metadata
     id="metadata5908">
    <rdf:RDF>
      <cc:Work
         rdf:about="">
        <dc:format>image/svg+xml</dc:format>
        <dc:type
           rdf:resource="http://purl.org/dc/dcmitype/StillImage" />
        <dc:title />
      </cc:Work>
    </rdf:RDF>
  </metadata>
  <defs
     id="defs5906" />
  <sodipodi:namedview
     pagecolor="#ffffff"
     bordercolor="#666666"
     borderopacity="1"
     objecttolerance="10"
     gridtolerance="10"
     guidetolerance="10"
     inkscape:pageopacity="0"
     inkscape:pageshadow="2"
     inkscape:window-width="1920"
     inkscape:window-height="1019"
     id="namedview5904"
     showgrid="false"
     inkscape:zoom="13.171004"
     inkscape:cx="8.1705839"
     inkscape:cy="6.460651"
     inkscape:window-x="0"
     inkscape:window-y="27"
     inkscape:window-maximized="1"
     inkscape:current-layer="svg5902" />
  <path
     d="M -2,-6 H 22 V 18 H -2 Z"
     id="path5898"
     inkscape:connector-curvature="0"
     style="fill:none" />
  <path
     d="M 7.992,0 C 3.576,0 0,3.584 0,8 0,12.416 3.576,16 7.992,16 12.416,16 16,12.416 16,8 16,3.584 12.416,0 7.992,0 Z m 5.544,4.8 h -2.36 C 10.92,3.8 10.552,2.84 10.072,1.952 11.544,2.456 12.768,3.48 13.536,4.8 Z M 8,1.632 C 8.664,2.592 9.184,3.656 9.528,4.8 H 6.472 C 6.816,3.656 7.336,2.592 8,1.632 Z M 1.808,9.6 C 1.68,9.088 1.6,8.552 1.6,8 1.6,7.448 1.68,6.912 1.808,6.4 H 4.512 C 4.448,6.928 4.4,7.456 4.4,8 c 0,0.544 0.048,1.072 0.112,1.6 z m 0.656,1.6 h 2.36 c 0.256,1 0.624,1.96 1.104,2.848 C 4.456,13.544 3.232,12.528 2.464,11.2 Z M 4.824,4.8 H 2.464 C 3.232,3.472 4.456,2.456 5.928,1.952 5.448,2.84 5.08,3.8 4.824,4.8 Z M 8,14.368 C 7.336,13.408 6.816,12.344 6.472,11.2 H 9.528 C 9.184,12.344 8.664,13.408 8,14.368 Z M 9.872,9.6 H 6.128 C 6.056,9.072 6,8.544 6,8 6,7.456 6.056,6.92 6.128,6.4 H 9.872 C 9.944,6.92 10,7.456 10,8 10,8.544 9.944,9.072 9.872,9.6 Z m 0.2,4.448 C 10.552,13.16 10.92,12.2 11.176,11.2 h 2.36 c -0.768,1.32 -1.992,2.344 -3.464,2.848 z M 11.488,9.6 C 11.552,9.072 11.6,8.544 11.6,8 11.6,7.456 11.552,6.928 11.488,6.4 h 2.704 C 14.32,6.912 14.4,7.448 14.4,8 c 0,0.552 -0.08,1.088 -0.208,1.6 z"
     id="path5900"
     style="fill:#a6a6a6;fill-opacity:1;stroke-width:0.80000001"
     inkscape:connector-curvature="0" />
</svg>
